<?xml version="1.0" encoding="UTF-8" standalone="no"?>
<svg width="563px" height="172px" viewBox="0 0 563 172" version="1.1" xmlns="http://www.w3.org/2000/svg" xmlns:xlink="http://www.w3.org/1999/xlink">
    <!-- Generator: Sketch 3.8.3 (29802) - http://www.bohemiancoding.com/sketch -->
    <title>Group</title>
    <desc>Created with Sketch.</desc>
    <defs>
        <filter x="-50%" y="-50%" width="200%" height="200%" filterUnits="objectBoundingBox" id="filter-1">
            <feOffset dx="0" dy="2" in="SourceAlpha" result="shadowOffsetOuter1"></feOffset>
            <feGaussianBlur stdDeviation="4" in="shadowOffsetOuter1" result="shadowBlurOuter1"></feGaussianBlur>
            <feColorMatrix values="0 0 0 0 0   0 0 0 0 0   0 0 0 0 0  0 0 0 0.5 0" type="matrix" in="shadowBlurOuter1" result="shadowMatrixOuter1"></feColorMatrix>
            <feMerge>
                <feMergeNode in="shadowMatrixOuter1"></feMergeNode>
                <feMergeNode in="SourceGraphic"></feMergeNode>
            </feMerge>
        </filter>
    </defs>
    <g id="Page-1" stroke="none" stroke-width="1" fill="none" fill-rule="evenodd">
        <g id="Title!!" transform="translate(-356.000000, -145.000000)">
            <g id="Group" filter="url(#filter-1)" transform="translate(364.000000, 151.000000)">
                <g id="Logo-Copy">
                    <polygon id="Star-1" stroke="#F9D153" points="282.398218 144.455617 275.634 149.57133 278.410488 141.559204 271.453484 136.708763 279.933665 136.872709 282.398218 128.759259 284.86277 136.872709 293.342951 136.708763 286.385947 141.559204 289.162435 149.57133"></polygon>
                    <polygon id="Star-1-Copy" stroke="#F9D153" points="392.311525 144.455617 385.547308 149.57133 388.323796 141.559204 381.366792 136.708763 389.846973 136.872709 392.311525 128.759259 394.776078 136.872709 403.256259 136.708763 396.299255 141.559204 399.075742 149.57133"></polygon>
                    <path d="M0.777688746,0.513888889 L35.1272258,0.513888889 C40.7152167,0.513888889 45.8374648,0.979547812 50.4941239,1.91087963 C55.150783,2.84221145 59.2047548,4.32136332 62.656161,6.34837963 C66.1075671,8.37539594 68.7919539,11.0871744 70.7094017,14.4837963 C72.6268496,17.8804182 73.5855591,22.0439568 73.5855591,26.974537 C73.5855591,32.1242541 72.0790155,36.8904102 69.0658832,41.2731481 C66.0527508,45.6558861 61.4235533,48.6689733 55.1781517,50.3125 L55.1781517,50.9699074 C62.9575116,52.2847288 68.9015108,55.0512906 73.0103276,59.2696759 C77.1191445,63.4880612 79.1735221,69.2129268 79.1735221,76.4444444 C79.1735221,81.8132984 78.1326374,86.4698877 76.0508369,90.4143519 C73.9690364,94.358816 71.0929077,97.6458202 67.4223647,100.275463 C63.7518216,102.905106 59.3965411,104.849917 54.3563925,106.109954 C49.3162438,107.369991 43.8379035,108 37.9212073,108 L0.777688746,108 L0.777688746,0.513888889 Z M33.4837073,45.0532407 C41.0439303,45.0532407 46.4948788,43.6836557 49.8367165,40.9444444 C53.1785542,38.2052332 54.849448,34.3156116 54.849448,29.275463 C54.849448,24.3448828 53.0963791,20.7839616 49.5901887,18.5925926 C46.0839984,16.4012236 40.8247917,15.3055556 33.812411,15.3055556 L19.8425036,15.3055556 L19.8425036,45.0532407 L33.4837073,45.0532407 Z M35.948985,93.2083333 C43.8379134,93.2083333 49.9188711,91.7291815 54.1920406,88.7708333 C58.4652101,85.8124852 60.6017628,81.2654628 60.6017628,75.1296296 C60.6017628,69.5416387 58.5199935,65.4054918 54.3563925,62.7210648 C50.1927914,60.0366378 44.0570503,58.6944444 35.948985,58.6944444 L19.8425036,58.6944444 L19.8425036,93.2083333 L35.948985,93.2083333 Z M91.9929665,67.7337963 C91.9929665,61.1596894 93.0338512,55.2430819 95.1156517,49.9837963 C97.1974522,44.7245107 99.9640141,40.2870551 103.41542,36.6712963 C106.866826,33.0555375 110.838623,30.2615839 115.330929,28.2893519 C119.823236,26.3171198 124.425042,25.3310185 129.136485,25.3310185 C134.614907,25.3310185 139.435847,26.2623364 143.599448,28.125 C147.763049,29.9876636 151.241795,32.617267 154.035791,36.0138889 C156.829786,39.4105108 158.938947,43.4644826 160.363337,48.1759259 C161.787727,52.8873692 162.499911,58.0370091 162.499911,63.625 C162.499911,67.3503273 162.225994,70.308631 161.678152,72.5 L110.400374,72.5 C111.276922,79.8410861 113.82435,85.4837766 118.042735,89.4282407 C122.26112,93.3727049 127.657286,95.3449074 134.231392,95.3449074 C137.737583,95.3449074 140.997195,94.8244651 144.010328,93.7835648 C147.02346,92.7426645 150.009155,91.2909044 152.967504,89.4282407 L159.377226,101.261574 C155.54233,103.781648 151.269225,105.863418 146.557781,107.506944 C141.846338,109.150471 136.915832,109.972222 131.766115,109.972222 C126.178124,109.972222 120.973701,109.013513 116.152689,107.096065 C111.331677,105.178617 107.113355,102.412055 103.497596,98.7962963 C99.8818373,95.1805375 97.0604921,90.7704736 95.0334758,85.5659722 C93.0064595,80.3614709 91.9929665,74.4174717 91.9929665,67.7337963 L91.9929665,67.7337963 Z M146.064726,60.5023148 C146.064726,54.0377763 144.722532,48.9977033 142.038105,45.3819444 C139.353678,41.7661856 135.217532,39.9583333 129.629541,39.9583333 C124.808529,39.9583333 120.590207,41.6840105 116.974448,45.1354167 C113.358689,48.5868228 111.11257,53.709071 110.236022,60.5023148 L146.064726,60.5023148 Z M180.578615,27.3032407 L196.192041,27.3032407 L197.506855,38.3148148 L198.164263,38.3148148 C201.560885,34.699056 205.258764,31.6311854 209.258013,29.1111111 C213.257261,26.5910368 217.776892,25.3310185 222.817041,25.3310185 C228.733737,25.3310185 233.472501,26.5910368 237.033476,29.1111111 C240.59445,31.6311854 243.306229,35.1921066 245.168892,39.7939815 C249.003788,35.6303804 253.002977,32.179026 257.166578,29.4398148 C261.330179,26.7006036 265.986768,25.3310185 271.136485,25.3310185 C279.682824,25.3310185 285.982915,28.0975804 290.036948,33.630787 C294.090981,39.1639937 296.117967,47.0801954 296.117967,57.3796296 L296.117967,108 L277.053152,108 L277.053152,59.8449074 C277.053152,53.161232 276.039659,48.4498594 274.012642,45.7106481 C271.985626,42.9714369 268.890364,41.6018519 264.726763,41.6018519 C259.686614,41.6018519 254.043924,44.9436394 247.798522,51.6273148 L247.798522,108 L228.898059,108 L228.898059,59.8449074 C228.898059,53.161232 227.884566,48.4498594 225.85755,45.7106481 C223.830534,42.9714369 220.680488,41.6018519 216.407318,41.6018519 C211.36717,41.6018519 205.724479,44.9436394 199.479078,51.6273148 L199.479078,108 L180.578615,108 L180.578615,27.3032407 Z M318.305467,27.3032407 L337.205929,27.3032407 L337.205929,75.4583333 C337.205929,82.1420087 338.192031,86.8533814 340.164263,89.5925926 C342.136495,92.3318038 345.313932,93.7013889 349.69667,93.7013889 C353.202861,93.7013889 356.298123,92.8248544 358.98255,91.0717593 C361.666977,89.3186641 364.543106,86.4699271 367.611022,82.525463 L367.611022,27.3032407 L386.511485,27.3032407 L386.511485,108 L371.062411,108 L369.583244,96.1666667 L369.090189,96.1666667 C365.583998,100.330268 361.776552,103.672055 357.667735,106.19213 C353.558918,108.712204 348.710587,109.972222 343.122596,109.972222 C334.466689,109.972222 328.166597,107.20566 324.222133,101.672454 C320.277669,96.139247 318.305467,88.2230453 318.305467,77.9236111 L318.305467,27.3032407 Z M411.328615,86.6342593 C414.944373,89.4830389 418.532686,91.7017667 422.093661,93.2905093 C425.654636,94.8792518 429.516865,95.6736111 433.680467,95.6736111 C438.063204,95.6736111 441.295425,94.769685 443.377226,92.9618056 C445.459026,91.1539261 446.499911,88.8256315 446.499911,85.9768519 C446.499911,84.3333251 446.00686,82.8815649 445.020744,81.6215278 C444.034628,80.3614906 442.719827,79.2384309 441.0763,78.2523148 C439.432773,77.2661988 437.570137,76.3622726 435.488337,75.5405093 C433.406536,74.7187459 431.324767,73.8696031 429.242967,72.9930556 C426.613324,72.0069395 423.928937,70.8564881 421.189726,69.5416667 C418.450515,68.2268453 416.012653,66.6381266 413.876068,64.775463 C411.739484,62.9127993 409.986415,60.7488549 408.616809,58.2835648 C407.247204,55.8182747 406.562411,52.8873627 406.562411,49.4907407 C406.562411,42.3687916 409.192014,36.5617509 414.4513,32.0694444 C419.710585,27.577138 426.887211,25.3310185 435.981392,25.3310185 C441.569383,25.3310185 446.609456,26.3171198 451.101763,28.2893519 C455.594069,30.2615839 459.483691,32.5077034 462.770744,35.0277778 L454.060096,46.5324074 C451.211316,44.4506069 448.335188,42.7797131 445.431624,41.5196759 C442.52806,40.2596388 439.487581,39.6296296 436.310096,39.6296296 C432.256064,39.6296296 429.270368,40.4787724 427.35292,42.1770833 C425.435472,43.8753943 424.476763,45.9845553 424.476763,48.5046296 C424.476763,50.1481564 424.942422,51.5451331 425.873754,52.6956019 C426.805085,53.8460706 428.037712,54.8595635 429.57167,55.7361111 C431.105629,56.6126587 432.886089,57.4344097 434.913105,58.2013889 C436.940122,58.968368 439.049283,59.7353357 441.240652,60.5023148 C443.979863,61.4884309 446.719033,62.6114906 449.458244,63.8715278 C452.197456,65.1315649 454.6901,66.6928919 456.936254,68.5555556 C459.182407,70.4182192 460.990259,72.6917304 462.359865,75.3761574 C463.72947,78.0605844 464.414263,81.2654135 464.414263,84.9907407 C464.414263,88.4969311 463.72947,91.7565436 462.359865,94.7696759 C460.990259,97.7828083 458.990665,100.412412 456.361022,102.658565 C453.731379,104.904718 450.444375,106.685179 446.499911,108 C442.555447,109.314821 438.063208,109.972222 433.023059,109.972222 C427.435068,109.972222 421.929336,108.903946 416.505698,106.767361 C411.08206,104.630776 406.398079,101.973781 402.453615,98.7962963 L411.328615,86.6342593 Z M476.083244,67.7337963 C476.083244,61.1596894 477.124129,55.2430819 479.205929,49.9837963 C481.28773,44.7245107 484.054292,40.2870551 487.505698,36.6712963 C490.957104,33.0555375 494.928901,30.2615839 499.421207,28.2893519 C503.913514,26.3171198 508.51532,25.3310185 513.226763,25.3310185 C518.705185,25.3310185 523.526125,26.2623364 527.689726,28.125 C531.853327,29.9876636 535.332073,32.617267 538.126068,36.0138889 C540.920064,39.4105108 543.029225,43.4644826 544.453615,48.1759259 C545.878005,52.8873692 546.590189,58.0370091 546.590189,63.625 C546.590189,67.3503273 546.316272,70.308631 545.768429,72.5 L494.490652,72.5 C495.367199,79.8410861 497.914628,85.4837766 502.133013,89.4282407 C506.351398,93.3727049 511.747563,95.3449074 518.32167,95.3449074 C521.827861,95.3449074 525.087473,94.8244651 528.100605,93.7835648 C531.113738,92.7426645 534.099433,91.2909044 537.057781,89.4282407 L543.467504,101.261574 C539.632608,103.781648 535.359502,105.863418 530.648059,107.506944 C525.936616,109.150471 521.00611,109.972222 515.856392,109.972222 C510.268402,109.972222 505.063978,109.013513 500.242967,107.096065 C495.421955,105.178617 491.203633,102.412055 487.587874,98.7962963 C483.972115,95.1805375 481.15077,90.7704736 479.123754,85.5659722 C477.096737,80.3614709 476.083244,74.4174717 476.083244,67.7337963 L476.083244,67.7337963 Z M530.155004,60.5023148 C530.155004,54.0377763 528.81281,48.9977033 526.128383,45.3819444 C523.443956,41.7661856 519.307809,39.9583333 513.719818,39.9583333 C508.898807,39.9583333 504.680485,41.6840105 501.064726,45.1354167 C497.448967,48.5868228 495.202847,53.709071 494.3263,60.5023148 L530.155004,60.5023148 Z" id="Bemuse" fill="#E17F9B"></path>
                    <path d="M208.326481,123.002824 L209.917407,123.002824 L209.917407,130.523565 L209.845093,133.922361 C210.73698,133.175104 211.689115,132.53633 212.701528,132.006019 C213.71394,131.475707 214.762495,131.210556 215.847222,131.210556 C218.161308,131.210556 219.896846,132.012037 221.053889,133.615023 C222.210932,135.21801 222.789444,137.369354 222.789444,140.06912 C222.789444,141.539529 222.584555,142.853235 222.174769,144.010278 C221.764983,145.167321 221.204548,146.149587 220.493449,146.957106 C219.78235,147.764626 218.96279,148.379296 218.034745,148.801134 C217.106701,149.222973 216.136487,149.433889 215.124074,149.433889 C214.280397,149.433889 213.406602,149.247077 212.502662,148.873449 C211.598722,148.499821 210.736979,147.999648 209.917407,147.372917 L209.845093,147.372917 L209.664306,149 L208.326481,149 L208.326481,123.002824 Z M209.917407,145.781991 C210.88161,146.601563 211.809641,147.180075 212.701528,147.517546 C213.593415,147.855017 214.376818,148.02375 215.051759,148.02375 C215.919541,148.02375 216.727049,147.830912 217.474306,147.445231 C218.221562,147.059551 218.860337,146.517195 219.390648,145.818148 C219.920959,145.119101 220.336765,144.281463 220.638079,143.305208 C220.939392,142.328953 221.090046,141.250268 221.090046,140.06912 C221.090046,139.008498 220.987601,138.020205 220.782708,137.104213 C220.577815,136.188221 220.258428,135.398792 219.824537,134.735903 C219.390646,134.073014 218.824186,133.554763 218.125139,133.181134 C217.426092,132.807506 216.582428,132.620694 215.59412,132.620694 C214.726338,132.620694 213.822412,132.867768 212.882315,133.361921 C211.942218,133.856075 210.953925,134.561137 209.917407,135.47713 L209.917407,145.781991 Z M226.549815,140.35838 C226.549815,138.936181 226.760731,137.658632 227.182569,136.525694 C227.604408,135.392757 228.170868,134.434595 228.881968,133.651181 C229.593067,132.867766 230.400574,132.265149 231.304514,131.84331 C232.208454,131.421472 233.142511,131.210556 234.106713,131.210556 C236.179748,131.210556 237.806815,131.909592 238.987963,133.307685 C240.169111,134.705779 240.759676,136.682364 240.759676,139.2375 L240.759676,139.888333 C240.759676,140.105279 240.735571,140.322221 240.687361,140.539167 L228.176898,140.539167 C228.201003,141.623894 228.369736,142.630265 228.683102,143.55831 C228.996468,144.486355 229.436378,145.28181 230.002847,145.944699 C230.569316,146.607588 231.250274,147.125839 232.045741,147.499468 C232.841208,147.873096 233.733081,148.059907 234.721389,148.059907 C235.661486,148.059907 236.511177,147.921305 237.270486,147.644097 C238.029795,147.366889 238.734858,146.98724 239.385694,146.505139 L240.036528,147.734491 C239.337481,148.144277 238.572157,148.529952 237.740532,148.891528 C236.908908,149.253104 235.854327,149.433889 234.576759,149.433889 C233.467927,149.433889 232.425398,149.228999 231.449144,148.819213 C230.472889,148.409427 229.623198,147.812836 228.900046,147.029421 C228.176895,146.246007 227.604408,145.293871 227.182569,144.172986 C226.760731,143.052101 226.549815,141.780578 226.549815,140.35838 L226.549815,140.35838 Z M239.241065,139.309815 C239.241065,137.068044 238.783076,135.386742 237.867083,134.265856 C236.951091,133.144971 235.709699,132.584537 234.14287,132.584537 C233.395614,132.584537 232.684525,132.741218 232.009583,133.054583 C231.334642,133.367949 230.725998,133.813886 230.183634,134.392407 C229.64127,134.970929 229.195334,135.675991 228.84581,136.507616 C228.496287,137.33924 228.273318,138.273297 228.176898,139.309815 L239.241065,139.309815 Z M244.483889,144.661111 C244.483889,142.756811 245.387815,141.298477 247.195694,140.286065 C249.003574,139.273652 251.835876,138.550511 255.692685,138.11662 C255.71679,137.465784 255.674607,136.808931 255.566134,136.146042 C255.457661,135.483153 255.252772,134.892587 254.951458,134.374329 C254.650145,133.85607 254.228313,133.434238 253.685949,133.108819 C253.143585,132.783401 252.450575,132.620694 251.606898,132.620694 C250.42575,132.620694 249.353091,132.849689 248.388889,133.307685 C247.424687,133.765681 246.653336,134.211618 246.074815,134.645509 L245.351667,133.452315 C245.665032,133.235369 246.044681,132.994322 246.490625,132.729167 C246.936569,132.464011 247.430715,132.222964 247.973079,132.006019 C248.515443,131.789073 249.112034,131.602262 249.76287,131.445579 C250.413707,131.288896 251.088638,131.210556 251.787685,131.210556 C252.824203,131.210556 253.691972,131.385315 254.391019,131.734838 C255.090065,132.084361 255.656526,132.560429 256.090417,133.163056 C256.524308,133.765682 256.831643,134.470744 257.012431,135.278264 C257.193218,136.085783 257.283611,136.959579 257.283611,137.899676 L257.283611,149 L255.945787,149 L255.765,146.758241 L255.692685,146.758241 C254.800798,147.457287 253.842636,148.077983 252.818171,148.620347 C251.793706,149.162711 250.702969,149.433889 249.545926,149.433889 C248.846879,149.433889 248.196052,149.33747 247.593426,149.14463 C246.990799,148.951789 246.45447,148.662533 245.984421,148.276852 C245.514373,147.891171 245.146776,147.397025 244.88162,146.794398 C244.616465,146.191772 244.483889,145.480683 244.483889,144.661111 L244.483889,144.661111 Z M246.14713,144.588796 C246.14713,145.842259 246.5087,146.734133 247.231852,147.264444 C247.955004,147.794756 248.81072,148.059907 249.799028,148.059907 C250.81144,148.059907 251.775628,147.81886 252.69162,147.336759 C253.607613,146.854658 254.607958,146.155622 255.692685,145.23963 L255.692685,139.345972 C253.908911,139.562918 252.408393,139.828069 251.191088,140.141435 C249.973782,140.454801 248.991516,140.828424 248.244259,141.262315 C247.497002,141.696206 246.960673,142.190352 246.635255,142.744769 C246.309836,143.299185 246.14713,143.913855 246.14713,144.588796 L246.14713,144.588796 Z M263.900417,133.018426 L261.188611,133.018426 L261.188611,131.789074 L263.936574,131.644444 L264.153519,126.618565 L265.5275,126.618565 L265.5275,131.644444 L270.55338,131.644444 L270.55338,133.018426 L265.5275,133.018426 L265.5275,144.335694 C265.5275,144.890111 265.569683,145.390283 265.654051,145.836227 C265.738419,146.28217 265.889073,146.667846 266.106019,146.993264 C266.322964,147.318682 266.618247,147.571782 266.991875,147.752569 C267.365503,147.933357 267.853624,148.02375 268.45625,148.02375 C268.793721,148.02375 269.161317,147.969514 269.559051,147.861042 C269.956784,147.752569 270.312329,147.626019 270.625694,147.481389 L271.059583,148.783056 C270.553377,148.975896 270.047178,149.132577 269.540972,149.253102 C269.034766,149.373627 268.600881,149.433889 268.239306,149.433889 C267.395628,149.433889 266.696592,149.307339 266.142176,149.054236 C265.58776,148.801133 265.141823,148.445589 264.804352,147.987593 C264.466881,147.529596 264.23186,146.975188 264.099282,146.324352 C263.966705,145.673515 263.900417,144.962427 263.900417,144.191065 L263.900417,133.018426 Z" id="beat" fill="#FC80A8"></path>
                    <path d="M296.326444,131.64464 L297.70041,131.64464 L297.845038,134.320258 L297.953509,134.320258 C298.724862,133.428381 299.586595,132.68717 300.538735,132.096603 C301.490874,131.506035 302.449025,131.210756 303.413216,131.210756 C304.811294,131.210756 305.883941,131.53014 306.631189,132.168916 C307.378437,132.807693 307.908735,133.669427 308.222097,134.754142 C309.234498,133.669427 310.216753,132.807693 311.168893,132.168916 C312.121032,131.53014 313.103287,131.210756 314.115688,131.210756 C317.586777,131.210756 319.322296,133.428363 319.322296,137.863644 L319.322296,149 L317.695231,149 L317.695231,138.080586 C317.695231,136.224517 317.381873,134.856591 316.755149,133.976766 C316.128425,133.096942 315.152195,132.657036 313.826432,132.657036 C312.259621,132.657036 310.524102,133.741735 308.619824,135.911166 L308.619824,149 L307.028916,149 L307.028916,138.080586 C307.028916,136.224517 306.715558,134.856591 306.088834,133.976766 C305.46211,133.096942 304.473828,132.657036 303.12396,132.657036 C301.557149,132.657036 299.82163,133.741735 297.917352,135.911166 L297.917352,149 L296.326444,149 L296.326444,131.64464 Z M325.432829,131.64464 L327.023737,131.64464 L327.023737,142.564054 C327.023737,144.420123 327.331068,145.788049 327.945741,146.667873 C328.560413,147.547698 329.566772,147.987604 330.96485,147.987604 C332.001356,147.987604 332.941428,147.704377 333.785096,147.137914 C334.628764,146.571452 335.556784,145.673562 336.569185,144.444218 L336.569185,131.64464 L338.160093,131.64464 L338.160093,149 L336.822284,149 L336.641499,146.10744 L336.569185,146.10744 C335.725517,147.119841 334.833654,147.927339 333.893567,148.529959 C332.95348,149.132579 331.880833,149.433884 330.675594,149.433884 C328.867735,149.433884 327.541992,148.891534 326.698324,147.806819 C325.854656,146.722104 325.432829,145.046846 325.432829,142.780996 L325.432829,131.64464 Z M343.583643,145.854341 C344.330891,146.481065 345.126337,147.005337 345.970005,147.42717 C346.813673,147.849004 347.862215,148.059918 349.115664,148.059918 C350.489637,148.059918 351.520101,147.71643 352.207088,147.029444 C352.894074,146.342457 353.237562,145.540985 353.237562,144.625003 C353.237562,144.094698 353.111014,143.624661 352.857914,143.21488 C352.604813,142.805099 352.273377,142.455584 351.863596,142.166327 C351.453815,141.87707 351.001857,141.623973 350.507709,141.40703 C350.01356,141.190087 349.513394,140.985199 349.007193,140.792361 C348.356364,140.551313 347.699518,140.298217 347.036637,140.033064 C346.373755,139.767911 345.77717,139.448528 345.246865,139.074904 C344.71656,138.701279 344.288706,138.255347 343.963292,137.737095 C343.637877,137.218842 343.475172,136.5861 343.475172,135.838852 C343.475172,135.212128 343.595694,134.615543 343.836742,134.049081 C344.07779,133.482618 344.439356,132.988477 344.921452,132.566643 C345.403548,132.14481 345.98808,131.813374 346.675067,131.572326 C347.362053,131.331278 348.163525,131.210756 349.079507,131.210756 C349.995489,131.210756 350.893379,131.379487 351.773204,131.716954 C352.653028,132.054421 353.406292,132.488301 354.033016,133.018606 L353.165248,134.139473 C352.586733,133.705587 351.97207,133.337994 351.321241,133.036684 C350.670412,132.735375 349.89907,132.584722 349.007193,132.584722 C348.332259,132.584722 347.753753,132.675114 347.271657,132.855899 C346.789561,133.036685 346.385812,133.271704 346.060398,133.560961 C345.734983,133.850218 345.493939,134.18768 345.337258,134.573357 C345.180576,134.959034 345.102237,135.344704 345.102237,135.730381 C345.102237,136.236582 345.216733,136.664435 345.445729,137.013955 C345.674724,137.363474 345.982055,137.670805 346.367732,137.935958 C346.753409,138.201111 347.193314,138.436129 347.687463,138.641019 C348.181611,138.84591 348.681777,139.044772 349.187978,139.23761 C349.862912,139.502763 350.537836,139.767911 351.21277,140.033064 C351.887704,140.298217 352.496341,140.623626 353.038699,141.009303 C353.581056,141.39498 354.020962,141.871042 354.358429,142.437504 C354.695896,143.003967 354.864627,143.709021 354.864627,144.552689 C354.864627,145.203518 354.738079,145.824207 354.484979,146.414774 C354.231878,147.005342 353.852234,147.523587 353.346033,147.969525 C352.839832,148.415464 352.22517,148.771004 351.502026,149.036157 C350.778882,149.30131 349.94728,149.433884 349.007193,149.433884 C347.705534,149.433884 346.512365,149.198866 345.42765,148.728822 C344.342935,148.258779 343.414914,147.698351 342.643561,147.047522 L343.583643,145.854341 Z M360.288177,127.450428 C359.878396,127.450428 359.534908,127.317854 359.257703,127.052701 C358.980497,126.787548 358.841897,126.450086 358.841897,126.040305 C358.841897,125.582314 358.980497,125.226774 359.257703,124.973673 C359.534908,124.720573 359.878396,124.594025 360.288177,124.594025 C360.697958,124.594025 361.041446,124.720573 361.318652,124.973673 C361.595857,125.226774 361.734457,125.582314 361.734457,126.040305 C361.734457,126.450086 361.595857,126.787548 361.318652,127.052701 C361.041446,127.317854 360.697958,127.450428 360.288177,127.450428 L360.288177,127.450428 Z M359.456566,131.64464 L361.047474,131.64464 L361.047474,149 L359.456566,149 L359.456566,131.64464 Z M366.290239,140.358477 C366.290239,138.91219 366.507179,137.616577 366.941065,136.471599 C367.374951,135.326622 367.953457,134.368471 368.676601,133.597118 C369.399745,132.825765 370.237373,132.235206 371.189513,131.825425 C372.141652,131.415644 373.148011,131.210756 374.208622,131.210756 C375.413861,131.210756 376.420221,131.427696 377.227732,131.861582 C378.035242,132.295468 378.728244,132.789609 379.306759,133.344019 L378.366677,134.464886 C377.812267,133.934581 377.197604,133.494675 376.52267,133.145155 C375.847736,132.795636 375.088447,132.620879 374.244779,132.620879 C373.352902,132.620879 372.527325,132.807688 371.768025,133.181312 C371.008724,133.554937 370.345852,134.085234 369.77939,134.772221 C369.212927,135.459207 368.766995,136.272731 368.441581,137.212818 C368.116166,138.152905 367.953461,139.201447 367.953461,140.358477 C367.953461,141.491402 368.104114,142.527892 368.405424,143.467979 C368.706733,144.408066 369.128561,145.215564 369.670919,145.890498 C370.213276,146.565432 370.876148,147.089703 371.659554,147.463327 C372.442959,147.836952 373.304692,148.023761 374.244779,148.023761 C375.160761,148.023761 376.010442,147.830926 376.793848,147.445249 C377.577253,147.059572 378.270255,146.589536 378.872875,146.035126 L379.704486,147.119836 C378.957238,147.79477 378.125635,148.349172 377.209653,148.783058 C376.293671,149.216944 375.281285,149.433884 374.172465,149.433884 C373.03954,149.433884 371.997024,149.228996 371.044885,148.819215 C370.092745,148.409434 369.261143,147.818875 368.550052,147.047522 C367.83896,146.276169 367.284558,145.33007 366.88683,144.209198 C366.489101,143.088325 366.290239,141.804764 366.290239,140.358477 L366.290239,140.358477 Z" id="music" fill="#8FEAFF"></path>
                    <path d="M404.097106,145.854341 C404.844354,146.481065 405.6398,147.005337 406.483468,147.42717 C407.327136,147.849004 408.375678,148.059918 409.629127,148.059918 C411.0031,148.059918 412.033564,147.71643 412.720551,147.029444 C413.407537,146.342457 413.751025,145.540985 413.751025,144.625003 C413.751025,144.094698 413.624477,143.624661 413.371376,143.21488 C413.118276,142.805099 412.78684,142.455584 412.377059,142.166327 C411.967278,141.87707 411.51532,141.623973 411.021171,141.40703 C410.527023,141.190087 410.026857,140.985199 409.520656,140.792361 C408.869827,140.551313 408.212981,140.298217 407.550099,140.033064 C406.887218,139.767911 406.290633,139.448528 405.760328,139.074904 C405.230023,138.701279 404.802169,138.255347 404.476755,137.737095 C404.15134,137.218842 403.988635,136.5861 403.988635,135.838852 C403.988635,135.212128 404.109157,134.615543 404.350205,134.049081 C404.591253,133.482618 404.952819,132.988477 405.434915,132.566643 C405.917011,132.14481 406.501543,131.813374 407.18853,131.572326 C407.875516,131.331278 408.676988,131.210756 409.59297,131.210756 C410.508952,131.210756 411.406842,131.379487 412.286667,131.716954 C413.166491,132.054421 413.919755,132.488301 414.546479,133.018606 L413.678711,134.139473 C413.100196,133.705587 412.485533,133.337994 411.834704,133.036685 C411.183875,132.735375 410.412533,132.584722 409.520656,132.584722 C408.845722,132.584722 408.267216,132.675114 407.78512,132.855899 C407.303024,133.036685 406.899275,133.271704 406.573861,133.560961 C406.248446,133.850218 406.007402,134.18768 405.850721,134.573357 C405.694039,134.959034 405.6157,135.344704 405.6157,135.730381 C405.6157,136.236582 405.730196,136.664435 405.959191,137.013955 C406.188187,137.363474 406.495518,137.670805 406.881195,137.935958 C407.266872,138.201111 407.706777,138.436129 408.200925,138.641019 C408.695074,138.84591 409.19524,139.044772 409.701441,139.23761 C410.376375,139.502763 411.051299,139.767911 411.726233,140.033064 C412.401167,140.298217 413.009804,140.623626 413.552162,141.009303 C414.094519,141.39498 414.534425,141.871042 414.871892,142.437504 C415.209359,143.003967 415.37809,143.709021 415.37809,144.552689 C415.37809,145.203518 415.251542,145.824207 414.998442,146.414774 C414.745341,147.005342 414.365697,147.523587 413.859496,147.969526 C413.353295,148.415464 412.738633,148.771004 412.015489,149.036157 C411.292345,149.30131 410.460743,149.433884 409.520656,149.433884 C408.218997,149.433884 407.025828,149.198866 405.941113,148.728823 C404.856398,148.258779 403.928377,147.698351 403.157024,147.047522 L404.097106,145.854341 Z M418.523749,140.358477 C418.523749,138.936295 418.734663,137.65876 419.156497,136.525835 C419.57833,135.39291 420.144784,134.434759 420.855876,133.651353 C421.566967,132.867948 422.374465,132.265337 423.278394,131.843503 C424.182324,131.42167 425.116371,131.210756 426.080562,131.210756 C428.153574,131.210756 429.780622,131.909784 430.961757,133.307862 C432.142892,134.70594 432.73345,136.682503 432.73345,139.23761 L432.73345,139.888436 C432.73345,140.105379 432.709346,140.322319 432.661136,140.539262 L420.150814,140.539262 C420.174919,141.623977 420.34365,142.630337 420.657012,143.558371 C420.970374,144.486406 421.41028,145.281852 421.976743,145.944733 C422.543205,146.607615 423.224155,147.12586 424.019613,147.499484 C424.815071,147.873109 425.706935,148.059918 426.695231,148.059918 C427.635318,148.059918 428.484999,147.921318 429.2443,147.644113 C430.0036,147.366907 430.708655,146.987263 431.359484,146.505167 L432.01031,147.734505 C431.311271,148.144286 430.545956,148.529957 429.71434,148.891529 C428.882725,149.253101 427.828157,149.433884 426.550603,149.433884 C425.441783,149.433884 424.399266,149.228996 423.423023,148.819215 C422.446779,148.409434 421.597098,147.812849 420.873954,147.029444 C420.15081,146.246038 419.57833,145.293913 419.156497,144.173041 C418.734663,143.052168 418.523749,141.780659 418.523749,140.358477 L418.523749,140.358477 Z M431.214856,139.309924 C431.214856,137.068179 430.756872,135.386895 429.84089,134.266022 C428.924908,133.14515 427.68353,132.584722 426.116719,132.584722 C425.369471,132.584722 424.65839,132.741401 423.983456,133.054763 C423.308522,133.368125 422.699885,133.814057 422.157528,134.392572 C421.61517,134.971087 421.169238,135.676141 420.819719,136.507756 C420.470199,137.339372 420.247233,138.273418 420.150814,139.309924 L431.214856,139.309924 Z M435.98758,140.358477 C435.98758,138.960399 436.192468,137.694917 436.602249,136.561992 C437.01203,135.429067 437.572458,134.46489 438.283549,133.669432 C438.994641,132.873974 439.814191,132.265337 440.742226,131.843503 C441.67026,131.42167 442.652515,131.210756 443.689021,131.210756 C444.749632,131.210756 445.671626,131.391539 446.455032,131.753111 C447.238437,132.114683 448.039909,132.608824 448.859472,133.235548 L448.931786,133.235548 L449.112571,131.64464 L450.45038,131.64464 L450.45038,156.846069 L448.859472,156.846069 L448.859472,150.157024 L448.931786,146.794423 C448.160433,147.493462 447.2987,148.108125 446.346561,148.63843 C445.394421,149.168735 444.339853,149.433884 443.182823,149.433884 C440.989287,149.433884 439.241717,148.656516 437.940058,147.101757 C436.638399,145.546999 435.98758,143.299261 435.98758,140.358477 L435.98758,140.358477 Z M437.686959,140.358477 C437.686959,141.515507 437.813507,142.564049 438.066608,143.504136 C438.319708,144.444223 438.6873,145.245695 439.169396,145.908577 C439.651492,146.571458 440.248076,147.089703 440.959167,147.463327 C441.670259,147.836952 442.483783,148.023761 443.399765,148.023761 C444.363956,148.023761 445.285951,147.776691 446.165775,147.282543 C447.0456,146.788394 447.94349,146.08334 448.859472,145.167358 L448.859472,134.862613 C447.94349,134.04305 447.081757,133.464544 446.274247,133.127077 C445.466736,132.78961 444.64116,132.620879 443.797492,132.620879 C442.92972,132.620879 442.122221,132.819741 441.374973,133.217469 C440.627725,133.615198 439.982931,134.157548 439.440574,134.844535 C438.898216,135.531521 438.470362,136.351071 438.157,137.303211 C437.843638,138.25535 437.686959,139.273762 437.686959,140.358477 L437.686959,140.358477 Z M456.59707,131.64464 L458.187978,131.64464 L458.187978,142.564054 C458.187978,144.420123 458.495309,145.788049 459.109982,146.667873 C459.724654,147.547698 460.731013,147.987604 462.129091,147.987604 C463.165597,147.987604 464.105669,147.704377 464.949337,147.137914 C465.793005,146.571452 466.721025,145.673562 467.733426,144.444218 L467.733426,131.64464 L469.324334,131.64464 L469.324334,149 L467.986525,149 L467.80574,146.10744 L467.733426,146.10744 C466.889758,147.119841 465.997895,147.927339 465.057808,148.529959 C464.117721,149.132579 463.045074,149.433884 461.839835,149.433884 C460.031976,149.433884 458.706233,148.891534 457.862565,147.806819 C457.018897,146.722104 456.59707,145.046846 456.59707,142.780996 L456.59707,131.64464 Z M474.530942,140.358477 C474.530942,138.936295 474.741856,137.65876 475.16369,136.525835 C475.585523,135.39291 476.151977,134.434759 476.863068,133.651353 C477.57416,132.867948 478.381658,132.265337 479.285588,131.843503 C480.189517,131.42167 481.123564,131.210756 482.087755,131.210756 C484.160767,131.210756 485.787815,131.909784 486.96895,133.307862 C488.150085,134.70594 488.740643,136.682503 488.740643,139.23761 L488.740643,139.888436 C488.740643,140.105379 488.716539,140.322319 488.668329,140.539262 L476.158007,140.539262 C476.182112,141.623977 476.350843,142.630337 476.664205,143.558371 C476.977567,144.486406 477.417473,145.281852 477.983936,145.944733 C478.550398,146.607615 479.231348,147.12586 480.026806,147.499484 C480.822264,147.873109 481.714128,148.059918 482.702424,148.059918 C483.642511,148.059918 484.492192,147.921318 485.251492,147.644113 C486.010793,147.366907 486.715848,146.987263 487.366677,146.505167 L488.017503,147.734505 C487.318464,148.144286 486.553149,148.529957 485.721534,148.891529 C484.889918,149.253101 483.83535,149.433884 482.557796,149.433884 C481.448976,149.433884 480.406459,149.228996 479.430216,148.819215 C478.453972,148.409434 477.604291,147.812849 476.881147,147.029444 C476.158003,146.246038 475.585523,145.293913 475.16369,144.173041 C474.741856,143.052168 474.530942,141.780659 474.530942,140.358477 L474.530942,140.358477 Z M487.222049,139.309924 C487.222049,137.068179 486.764065,135.386895 485.848083,134.266022 C484.932101,133.14515 483.690723,132.584722 482.123912,132.584722 C481.376664,132.584722 480.665583,132.741401 479.990649,133.054763 C479.315715,133.368125 478.707078,133.814057 478.16472,134.392572 C477.622363,134.971087 477.176431,135.676141 476.826911,136.507756 C476.477392,137.339372 476.254426,138.273418 476.158007,139.309924 L487.222049,139.309924 Z M493.441053,131.64464 L494.815019,131.64464 L494.959647,134.320258 L495.068118,134.320258 C495.959995,133.428381 496.875963,132.68717 497.81605,132.096603 C498.756137,131.506035 499.828784,131.210756 501.034023,131.210756 C502.841882,131.210756 504.167625,131.753106 505.011293,132.837821 C505.854961,133.922536 506.276788,135.597794 506.276788,137.863644 L506.276788,149 L504.68588,149 L504.68588,138.080586 C504.68588,136.224517 504.378549,134.856591 503.763876,133.976766 C503.149204,133.096942 502.130792,132.657036 500.70861,132.657036 C499.672104,132.657036 498.732032,132.928211 497.888364,133.470569 C497.044696,134.012926 496.092572,134.826451 495.031961,135.911166 L495.031961,149 L493.441053,149 L493.441053,131.64464 Z M511.230297,140.358477 C511.230297,138.91219 511.447237,137.616577 511.881123,136.471599 C512.315009,135.326622 512.893515,134.368471 513.616659,133.597118 C514.339803,132.825765 515.177431,132.235206 516.12957,131.825425 C517.08171,131.415644 518.088069,131.210756 519.14868,131.210756 C520.353919,131.210756 521.360279,131.427696 522.16779,131.861582 C522.9753,132.295468 523.668302,132.789609 524.246817,133.344019 L523.306735,134.464886 C522.752325,133.934581 522.137662,133.494675 521.462728,133.145155 C520.787794,132.795636 520.028505,132.620879 519.184837,132.620879 C518.29296,132.620879 517.467383,132.807688 516.708083,133.181312 C515.948782,133.554937 515.28591,134.085234 514.719448,134.772221 C514.152985,135.459207 513.707053,136.272731 513.381639,137.212818 C513.056224,138.152905 512.893519,139.201447 512.893519,140.358477 C512.893519,141.491402 513.044172,142.527892 513.345482,143.467979 C513.646791,144.408066 514.068619,145.215564 514.610976,145.890498 C515.153334,146.565432 515.816206,147.089703 516.599612,147.463327 C517.383017,147.836952 518.24475,148.023761 519.184837,148.023761 C520.100819,148.023761 520.9505,147.830926 521.733905,147.445249 C522.517311,147.059572 523.210313,146.589536 523.812933,146.035126 L524.644544,147.119836 C523.897296,147.79477 523.065693,148.349172 522.149711,148.783058 C521.233729,149.216944 520.221343,149.433884 519.112523,149.433884 C517.979598,149.433884 516.937082,149.228996 515.984942,148.819215 C515.032803,148.409434 514.201201,147.818875 513.49011,147.047522 C512.779018,146.276169 512.224616,145.33007 511.826887,144.209198 C511.429159,143.088325 511.230297,141.804764 511.230297,140.358477 L511.230297,140.358477 Z M527.46479,140.358477 C527.46479,138.936295 527.675704,137.65876 528.097538,136.525835 C528.519371,135.39291 529.085825,134.434759 529.796916,133.651353 C530.508008,132.867948 531.315506,132.265337 532.219436,131.843503 C533.123365,131.42167 534.057412,131.210756 535.021603,131.210756 C537.094615,131.210756 538.721663,131.909784 539.902798,133.307862 C541.083933,134.70594 541.674491,136.682503 541.674491,139.23761 L541.674491,139.888436 C541.674491,140.105379 541.650387,140.322319 541.602177,140.539262 L529.091855,140.539262 C529.11596,141.623977 529.284691,142.630337 529.598053,143.558371 C529.911415,144.486406 530.351321,145.281852 530.917784,145.944733 C531.484246,146.607615 532.165196,147.12586 532.960654,147.499484 C533.756112,147.873109 534.647976,148.059918 535.636272,148.059918 C536.576359,148.059918 537.42604,147.921318 538.18534,147.644113 C538.944641,147.366907 539.649696,146.987263 540.300525,146.505167 L540.951351,147.734505 C540.252312,148.144286 539.486997,148.529957 538.655381,148.891529 C537.823766,149.253101 536.769198,149.433884 535.491644,149.433884 C534.382824,149.433884 533.340307,149.228996 532.364063,148.819215 C531.38782,148.409434 530.538139,147.812849 529.814995,147.029444 C529.091851,146.246038 528.519371,145.293913 528.097538,144.173041 C527.675704,143.052168 527.46479,141.780659 527.46479,140.358477 L527.46479,140.358477 Z M540.155897,139.309924 C540.155897,137.068179 539.697913,135.386895 538.781931,134.266022 C537.865949,133.14515 536.624571,132.584722 535.05776,132.584722 C534.310512,132.584722 533.599431,132.741401 532.924497,133.054763 C532.249563,133.368125 531.640926,133.814057 531.098569,134.392572 C530.556211,134.971087 530.110279,135.676141 529.760759,136.507756 C529.41124,137.339372 529.188274,138.273418 529.091855,139.309924 L540.155897,139.309924 Z" id="=seq" fill="#CCFF6D"></path>
                </g>
            </g>
        </g>
    </g>
</svg>