<?xml version="1.0" standalone="yes"?>

<svg version="1.1" viewBox="0.0 0.0 960.0 540.0" fill="none" stroke="none" stroke-linecap="square" stroke-miterlimit="10" xmlns="http://www.w3.org/2000/svg" xmlns:xlink="http://www.w3.org/1999/xlink"><clipPath id="p.0"><path d="m0 0l960.0 0l0 540.0l-960.0 0l0 -540.0z" clip-rule="nonzero"></path></clipPath><g clip-path="url(#p.0)"><path fill="#000000" fill-opacity="0.0" d="m0 0l960.0 0l0 540.0l-960.0 0z" fill-rule="nonzero"></path><path fill="#000000" fill-opacity="0.0" d="m185.81102 58.244095l588.3779 0l0 224.0945l-588.3779 0z" fill-rule="nonzero"></path><path fill="#000000" d="m398.56253 103.34285q0 5.171875 -2.453125 9.65625q-4.984375 8.921875 -12.609375 15.5q-7.625 6.578125 -9.171875 7.34375q0.984375 0.171875 6.359375 6.546875q5.375 6.359375 5.375 15.578125q0 7.328125 -2.96875 13.875q-2.96875 6.546875 -8.015625 11.515625q-5.03125 4.96875 -11.640625 7.859375q-6.59375 2.90625 -13.90625 2.90625q-7.21875 0 -13.703125 -2.328125q-6.484375 -2.3125 -12.34375 -6.078125q-1.03125 -0.65625 -2.078125 -1.375q-1.046875 -0.71875 -1.984375 -1.421875q-1.796875 -1.078125 -1.796875 -3.328125q0 -0.875 2.90625 -0.75q-3.640625 7.65625 -10.875 11.34375q-7.234375 3.6875 -15.375 3.6875q-2.140625 0 -3.203125 -1.53125q-1.078125 -1.53125 -1.078125 -3.0q0 -3.71875 3.46875 -4.34375q2.5 -0.625 4.6875 -1.03125q2.203125 -0.421875 4.40625 -1.421875q5.421875 -2.421875 9.640625 -6.75q4.21875 -4.34375 7.578125 -9.75q3.375 -5.421875 5.890625 -11.484375q2.515625 -6.078125 4.625 -11.65625q1.84375 -4.9375 3.453125 -9.96875q1.625 -5.046875 3.328125 -10.140625q1.703125 -5.109375 3.671875 -10.140625q1.984375 -5.046875 0.09375 -1.4375q4.546875 -2.765625 0.921875 -1.140625q-3.609375 1.609375 -6.828125 3.640625q-5.09375 3.15625 -9.890625 7.1875q-4.78125 4.03125 -6.796875 9.28125q-0.421875 1.0625 -0.65625 2.09375q-0.21875 1.015625 -0.5 2.265625q-1.015625 3.078125 -4.1875 3.078125q-1.171875 0 -2.984375 -0.96875q-1.796875 -0.96875 -1.796875 -3.0625q0 -5.71875 2.328125 -10.65625q2.34375 -4.953125 6.0625 -9.078125q3.734375 -4.140625 8.46875 -7.5q4.75 -3.375 9.734375 -6.1875q4.984375 -2.828125 9.921875 -5.03125q4.9375 -2.21875 8.890625 -3.953125q0.046875 -0.015625 0.484375 -0.3125q0.453125 -0.3125 1.515625 -0.3125q1.640625 0 3.265625 1.234375q1.640625 1.21875 1.640625 3.421875q0 0.625 -0.734375 2.515625q-0.71875 1.890625 -1.609375 3.84375q-0.875 1.953125 -1.578125 3.609375q-0.703125 1.640625 1.34375 -6.59375q-3.625 3.3125 0.0625 0.65625q3.703125 -2.65625 7.8125 -4.875q4.109375 -2.234375 8.484375 -3.703125q4.375 -1.484375 8.6875 -1.484375q6.421875 0 11.03125 3.625q4.625 3.609375 4.625 10.53125zm-11.5625 0q0 -1.625 -1.1875 -2.234375q-1.171875 -0.609375 -3.40625 -0.609375q-3.65625 0 -7.765625 1.515625q-4.09375 1.5 -8.171875 3.890625q-4.078125 2.390625 -7.859375 5.265625q-3.78125 2.859375 -6.203125 4.96875q-2.625 7.21875 -5.375 15.109375q-2.75 7.875 -5.765625 15.796875q-3.046875 7.859375 -6.765625 15.46875q-3.703125 7.609375 -8.9375 14.375q-0.84375 1.265625 -4.03125 0.703125q-0.375 -2.78125 0.75 -2.78125q0.875 0 2.0 0.5625q5.796875 3.328125 11.53125 5.703125q5.75 2.359375 12.09375 2.359375q4.984375 0 9.703125 -1.9375q4.71875 -1.9375 8.359375 -5.34375q3.640625 -3.421875 5.828125 -7.859375q2.203125 -4.453125 2.203125 -9.453125q0 -4.375 -1.578125 -6.953125q-1.5625 -2.59375 -4.265625 -4.171875q-2.6875 -1.59375 -6.421875 -2.28125q-3.734375 -0.6875 -7.109375 -0.796875q0.21875 -0.109375 -0.390625 0.125q-0.609375 0.21875 -1.3125 0.4375q-0.6875 0.203125 -1.375 0.375q-0.6875 0.171875 -1.140625 0.171875q-2.359375 0 -3.515625 -1.578125q-1.140625 -1.59375 -1.140625 -3.328125q0 -2.921875 1.828125 -3.65625q0.546875 -1.453125 1.796875 -1.578125q1.265625 -0.125 1.546875 -0.234375q0.984375 -0.390625 2.625 -1.484375q1.65625 -1.09375 2.96875 -1.75q3.515625 -2.0625 7.15625 -4.34375q3.65625 -2.296875 7.203125 -4.75q2.140625 -1.546875 4.96875 -3.953125q2.828125 -2.40625 5.359375 -5.234375q2.546875 -2.84375 4.171875 -5.59375q1.625 -2.765625 1.625 -4.921875zm54.5625 32.0q0 3.75 -1.71875 7.234375q-1.703125 3.46875 -4.203125 6.453125q-2.484375 2.96875 -5.375 5.328125q-2.890625 2.359375 -5.359375 4.046875q-3.734375 2.578125 -8.03125 4.90625q-4.296875 2.3125 -9.59375 2.3125q-1.28125 0 -3.65625 -0.5q-2.375 -0.5 -2.375 -4.03125q0 -3.859375 3.5625 -4.6875q0.65625 -0.21875 1.203125 -0.21875q0.5625 0 0.828125 -0.0625q1.109375 -0.203125 2.234375 -0.734375q1.125 -0.53125 2.34375 -1.203125q1.953125 -1.265625 5.09375 -3.6875q3.15625 -2.421875 6.125 -5.28125q2.984375 -2.859375 4.859375 -5.53125q1.875 -2.6875 1.875 -4.59375q0 0.90625 0.78125 0.90625q-0.3125 0 -0.859375 0.1875q-0.546875 0.171875 -1.296875 0.421875q-5.546875 1.859375 -10.203125 5.640625q-4.65625 3.78125 -8.078125 8.84375q-3.40625 5.0625 -5.34375 10.8125q-1.9375 5.75 -1.9375 11.4375q0 1.84375 0.28125 4.140625q0.28125 2.296875 1.046875 4.125q0.765625 1.828125 1.796875 2.828125q1.03125 1.0 2.59375 1.0q0.53125 0 1.078125 -0.1875q0.5625 -0.203125 1.25 -0.59375q3.0 -1.671875 5.671875 -4.625q2.671875 -2.96875 4.890625 -6.171875q0.59375 -0.71875 1.125 -1.546875q0.53125 -0.828125 1.140625 -1.671875q1.09375 -1.828125 3.46875 -1.828125q1.609375 0 3.1875 1.15625q1.59375 1.140625 1.59375 3.375q0 0.875 -0.546875 1.984375q-1.59375 2.90625 -3.9375 6.375q-2.34375 3.453125 -5.296875 6.53125q-2.953125 3.0625 -6.609375 5.28125q-3.640625 2.234375 -7.890625 2.234375q-4.859375 0 -8.015625 -2.6875q-3.140625 -2.6875 -4.84375 -6.296875q-1.703125 -3.625 -2.375 -7.59375q-0.671875 -3.984375 -0.671875 -7.203125q0 -10.078125 4.21875 -19.25q4.234375 -9.1875 11.3125 -16.140625q2.109375 -2.09375 4.875 -4.265625q2.765625 -2.171875 5.890625 -3.96875q3.125 -1.8125 6.515625 -2.984375q3.390625 -1.171875 6.71875 -1.171875q4.8125 0 7.734375 3.265625q2.921875 3.25 2.921875 7.890625zm85.62497 44.25q0 2.171875 -2.78125 4.3125q-2.765625 2.140625 -5.734375 3.890625q-2.96875 1.734375 -5.765625 3.21875q-2.7812195 1.5 -3.9530945 1.9375q-2.828125 1.046875 -5.421875 1.046875q-5.515625 0 -7.65625 -3.59375q-2.125 -3.578125 -2.125 -7.9375q0 -4.21875 1.421875 -9.6875q1.4375 -5.46875 3.390625 -11.09375q1.96875 -5.640625 4.03125 -10.953125q2.078125 -5.3125 3.421875 -9.125q0.859375 -2.578125 1.859375 -5.75q1.0 -3.171875 1.0 -2.125q1.828125 -0.53125 -0.296875 0.453125q-2.125 0.984375 -3.453125 1.859375q-5.546875 3.703125 -10.75 7.734375q-5.1875 4.015625 -9.734375 7.796875q-1.8125 7.125 -4.34375 14.984375q-2.53125 7.84375 -5.84375 15.5q-1.0 2.109375 -1.96875 4.453125q-0.96875 2.34375 -2.3125 4.34375q-1.21875 2.140625 -3.640625 2.140625q-1.53125 0 -3.21875 -1.3125q-1.6875 -1.296875 -1.6875 -3.21875q0 -0.40625 0.421875 -2.359375q0.4375 -1.96875 0.5625 -2.09375q1.609375 -7.125 4.0625 -14.625q2.46875 -7.5 4.953125 -14.96875q1.96875 -6.65625 3.703125 -13.375q0.75 -2.8125 1.328125 -5.578125q0.59375 -2.78125 0.59375 -5.375q0 -0.28125 -0.0625 -0.65625q-0.0625 -0.375 -0.0625 2.296875q0.875 -0.171875 -2.375 2.609375q-3.234375 2.765625 -6.65625 6.609375q-3.40625 3.84375 -6.53125 7.796875q-3.125 3.9375 -5.359375 6.421875q-1.078125 1.078125 -0.65625 1.078125q0.40625 -0.796875 0.0625 0q-0.328125 0.796875 -0.75 1.5q-2.8125 5.515625 -5.359375 10.96875q-2.53125 5.4375 -4.90625 11.171875q-1.328125 3.03125 -2.390625 6.203125q-1.046875 3.15625 -2.3125 6.328125q-1.015625 2.703125 -3.859375 2.703125q-1.53125 0 -3.21875 -1.3125q-1.6875 -1.296875 -1.6875 -3.09375q0 -0.484375 0.234375 -1.296875q0.21875 -0.828125 0.390625 -1.6875q0.1875 -0.859375 0.34375 -1.46875q0.15625 -0.625 0.15625 -0.875q2.25 -8.734375 5.359375 -16.84375q3.109375 -8.125 6.90625 -15.984375q1.734375 -3.578125 3.359375 -7.28125q1.640625 -3.703125 3.53125 -7.390625q0.75 -1.484375 1.765625 -3.53125q1.03125 -2.0625 2.265625 -4.078125q1.25 -2.015625 2.578125 -3.953125q1.34375 -1.9375 2.640625 -3.234375q1.28125 -1.28125 3.0 -1.28125q1.421875 0 3.15625 1.375q1.75 1.359375 1.75 3.28125q0 0.828125 -0.515625 2.28125q-0.5 1.453125 -1.015625 3.0q-0.515625 1.53125 -1.0625 2.8125q-0.53125 1.265625 -3.1875 0.90625q-0.625 -3.359375 1.4375 -5.671875q2.0625 -2.328125 4.53125 -4.546875q2.484375 -2.21875 5.40625 -3.828125q2.9375 -1.609375 6.0 -1.609375q2.640625 0 4.46875 1.171875q1.84375 1.15625 2.65625 2.890625q0.828125 1.71875 1.046875 3.515625q0.234375 1.78125 0.234375 3.453125q0 2.703125 -0.40625 5.359375q-0.390625 2.65625 1.28125 -4.015625q-4.359375 4.359375 -0.90625 1.21875q3.46875 -3.140625 7.5 -5.9375q4.046875 -2.8125 8.359375 -4.796875q4.3125 -1.984375 8.2655945 -1.984375q3.0625 0 5.546875 2.390625q2.484375 2.390625 2.484375 5.515625q0 2.515625 -0.28125 4.984375q-0.265625 2.46875 -1.09375 4.9375q-1.515625 5.1875 -3.546875 10.3125q-2.015625 5.125 -4.0155945 10.109375q-1.984375 4.984375 -3.765625 9.890625q-1.78125 4.90625 -2.984375 9.953125q-0.234375 1.203125 -0.46875 2.328125q-0.21875 1.125 -0.21875 2.109375q0 1.03125 -0.0625 0.8125q-0.0625 -0.21875 -0.46875 -0.21875q1.546875 0 4.21875 -1.21875q2.6875 -1.234375 5.5468445 -2.875q2.859375 -1.65625 5.34375 -3.21875q2.5 -1.5625 3.765625 -1.5625q1.9375 0 3.234375 1.453125q1.296875 1.4375 1.296875 3.203125zm61.0 -4.5q0 1.59375 -1.21875 2.8125q-2.40625 2.78125 -4.703125 5.578125q-2.296875 2.796875 -5.046875 5.34375q-2.734375 2.546875 -6.109375 4.46875q-3.359375 1.921875 -8.484375 3.078125q-8.125 -3.703125 -8.125 -11.65625q0 -1.609375 0.234375 -2.984375q0.25 -1.390625 0.640625 3.4375q2.265625 -2.4375 -0.390625 -0.03125q-2.65625 2.390625 -5.75 4.640625q-3.09375 2.234375 -6.46875 3.84375q-3.375 1.625 -6.609375 1.625q-4.28125 0 -7.140625 -1.828125q-2.84375 -1.828125 -4.4375 -4.625q-1.59375 -2.796875 -2.15625 -6.078125q-0.546875 -3.28125 -0.546875 -6.375q0 -3.171875 0.390625 -6.1875q0.640625 -6.171875 2.1875 -11.90625q1.546875 -5.734375 3.734375 -11.40625q1.65625 -3.9375 3.421875 -7.765625q1.765625 -3.84375 3.53125 -7.640625q0.59375 -1.1875 1.265625 -2.859375q0.671875 -1.671875 1.609375 -2.921875q1.40625 -1.96875 3.640625 -1.96875q1.59375 0 3.1875 1.328125q1.59375 1.328125 1.59375 3.203125q0 1.140625 -0.34375 2.875q-0.34375 1.71875 -0.796875 3.453125q-0.453125 1.734375 -0.921875 3.40625q-0.46875 1.65625 -0.84375 2.546875q-1.375 4.484375 -3.203125 8.953125q-1.8125 4.453125 -3.34375 8.921875q-1.53125 4.453125 -2.546875 8.859375q-1.0 4.40625 -1.0 8.859375q0 1.28125 0.109375 2.90625q0.109375 1.625 0.484375 2.890625q0.375 1.25 0.84375 1.78125q0.46875 0.515625 1.15625 0.515625q1.84375 0 4.65625 -1.484375q2.8125 -1.484375 5.875 -3.703125q3.0625 -2.234375 5.875 -4.671875q2.8125 -2.453125 3.921875 -3.484375q0.96875 -4.640625 2.9375 -11.4375q1.96875 -6.796875 4.640625 -13.65625q2.671875 -6.875 5.90625 -13.140625q3.234375 -6.265625 7.125 -10.703125q1.46875 -1.46875 3.1875 -1.46875q1.71875 0 3.3125 1.328125q1.59375 1.328125 1.59375 4.546875q-0.125 0.125 -0.125 -0.375q-2.5625 7.125 -5.875 14.828125q-3.3125 7.703125 -6.28125 15.546875q-2.96875 7.84375 -5.03125 15.484375q-2.0625 7.640625 -2.0625 14.421875q0 0.328125 -0.03125 0.046875q-0.03125 -0.28125 -1.59375 -1.0625q1.390625 -0.25 4.25 -2.375q2.875 -2.140625 5.609375 -4.765625q2.75 -2.625 5.25 -5.125q2.515625 -2.5 4.234375 -2.5q1.78125 0 3.28125 1.375q1.5 1.359375 1.5 3.28125zm52.5 -47.625q0 3.875 -3.4375 4.453125q-0.96875 0.375 -1.671875 0.3125q-0.6875 -0.078125 -1.046875 -0.015625q-1.53125 0.140625 -2.921875 0.390625q-1.375 0.234375 -2.84375 0.46875q-6.390625 1.296875 -12.453125 4.1875q-6.0625 2.890625 -10.46875 7.515625q-1.09375 1.1875 -1.6875 2.4375q-0.59375 1.234375 -0.59375 2.75q0 -0.265625 0.6875 0.078125q0.6875 0.34375 2.78125 1.0625q2.109375 0.71875 4.859375 1.671875q2.765625 0.9375 5.328125 2.859375q2.578125 1.90625 4.390625 5.015625q1.828125 3.09375 1.828125 7.8125q0 5.15625 -1.953125 9.875q-1.9375 4.71875 -5.40625 8.390625q-3.46875 3.671875 -8.09375 5.84375q-4.609375 2.171875 -9.828125 2.171875q-5.078125 0 -8.9375 -2.1875q-3.859375 -2.171875 -6.421875 -5.578125q-2.5625 -3.421875 -3.8125 -7.640625q-1.234375 -4.234375 -1.234375 -8.625q0 -0.8125 0.0625 -2.109375q0.078125 -1.296875 0.3125 -2.734375q0.234375 -1.4375 1.234375 -3.1875q1.0 -1.75 3.546875 -1.75q1.484375 0 3.0625 1.15625q1.59375 1.140625 1.59375 3.25q0 2.609375 0.625 5.8125q0.640625 3.1875 1.921875 5.78125q1.296875 2.59375 3.203125 4.171875q1.921875 1.578125 4.59375 1.578125q2.640625 0 5.15625 -1.203125q2.515625 -1.21875 4.484375 -3.234375q1.984375 -2.03125 3.09375 -4.609375q1.109375 -2.59375 1.109375 -5.296875l0 -1.25q0 -0.984375 -0.859375 -1.796875q-0.859375 -0.828125 -2.71875 -1.65625q-1.859375 -0.828125 -4.421875 -1.71875q-2.5625 -0.890625 -5.015625 -2.25q-2.4375 -1.375 -4.34375 -3.6875q-1.890625 -2.3125 -1.890625 -6.140625q0 -3.59375 1.546875 -6.8125q1.546875 -3.234375 4.0 -5.703125q7.828125 -7.5625 17.875 -10.90625q10.046875 -3.359375 20.609375 -3.359375q2.171875 0 3.15625 1.484375q1.0 1.484375 1.0 2.921875zm37.875 7.875q0 3.75 -1.71875 7.234375q-1.703125 3.46875 -4.203125 6.453125q-2.484375 2.96875 -5.375 5.328125q-2.890625 2.359375 -5.359375 4.046875q-3.734375 2.578125 -8.03125 4.90625q-4.296875 2.3125 -9.59375 2.3125q-1.28125 0 -3.65625 -0.5q-2.375 -0.5 -2.375 -4.03125q0 -3.859375 3.5625 -4.6875q0.65625 -0.21875 1.203125 -0.21875q0.5625 0 0.828125 -0.0625q1.109375 -0.203125 2.234375 -0.734375q1.125 -0.53125 2.34375 -1.203125q1.953125 -1.265625 5.09375 -3.6875q3.15625 -2.421875 6.125 -5.28125q2.984375 -2.859375 4.859375 -5.53125q1.875 -2.6875 1.875 -4.59375q0 0.90625 0.78125 0.90625q-0.3125 0 -0.859375 0.1875q-0.546875 0.171875 -1.296875 0.421875q-5.546875 1.859375 -10.203125 5.640625q-4.65625 3.78125 -8.078125 8.84375q-3.40625 5.0625 -5.34375 10.8125q-1.9375 5.75 -1.9375 11.4375q0 1.84375 0.28125 4.140625q0.28125 2.296875 1.046875 4.125q0.765625 1.828125 1.796875 2.828125q1.03125 1.0 2.59375 1.0q0.53125 0 1.078125 -0.1875q0.5625 -0.203125 1.25 -0.59375q3.0 -1.671875 5.671875 -4.625q2.671875 -2.96875 4.890625 -6.171875q0.59375 -0.71875 1.125 -1.546875q0.53125 -0.828125 1.140625 -1.671875q1.09375 -1.828125 3.46875 -1.828125q1.609375 0 3.1875 1.15625q1.59375 1.140625 1.59375 3.375q0 0.875 -0.546875 1.984375q-1.59375 2.90625 -3.9375 6.375q-2.34375 3.453125 -5.296875 6.53125q-2.953125 3.0625 -6.609375 5.28125q-3.640625 2.234375 -7.890625 2.234375q-4.859375 0 -8.015625 -2.6875q-3.140625 -2.6875 -4.84375 -6.296875q-1.703125 -3.625 -2.375 -7.59375q-0.671875 -3.984375 -0.671875 -7.203125q0 -10.078125 4.21875 -19.25q4.234375 -9.1875 11.3125 -16.140625q2.109375 -2.09375 4.875 -4.265625q2.765625 -2.171875 5.890625 -3.96875q3.125 -1.8125 6.515625 -2.984375q3.390625 -1.171875 6.71875 -1.171875q4.8125 0 7.734375 3.265625q2.921875 3.25 2.921875 7.890625z" fill-rule="nonzero"></path><path fill="#000000" fill-opacity="0.0" d="m359.77954 199.20998l321.82678 0l0 24.692917l-321.82678 0z" fill-rule="nonzero"></path><path fill="#000000" d="m440.4405 219.59872l0 5.21875l2.875 0q1.734375 0 2.609375 -0.640625q0.875 -0.65625 0.875 -2.015625q0 -1.421875 -0.953125 -1.984375q-0.9375 -0.578125 -2.921875 -0.578125l-2.484375 0zm0 -1.296875l2.9375 0q1.4375 0 2.171875 -0.5q0.734375 -0.5 0.734375 -1.78125q0 -1.28125 -0.875 -1.765625q-0.875 -0.484375 -2.71875 -0.484375l-2.25 0l0 4.53125zm-1.609375 -5.890625l3.9375 0q2.640625 0 3.921875 0.8125q1.28125 0.796875 1.28125 2.5625q0 0.265625 -0.046875 0.515625q-0.03125 0.25 -0.171875 0.65625q-0.125 0.390625 -0.359375 0.71875q-0.21875 0.328125 -0.671875 0.671875q-0.453125 0.328125 -1.0625 0.515625q1.390625 0.265625 2.09375 1.171875q0.71875 0.90625 0.71875 2.1875q0 1.859375 -1.21875 2.890625q-1.21875 1.015625 -3.625 1.015625l-4.796875 0l0 -13.71875zm11.714813 13.71875l0 -13.71875l7.875 0l-0.0625 1.421875l-6.203125 0l0 4.484375l5.890625 0l0 1.40625l-5.890625 0l0 4.984375l6.40625 0l-0.078125 1.421875l-7.9375 0zm17.084015 -5.703125q-1.96875 -5.6875 -2.171875 -6.390625q0 0 -2.25 6.390625l4.421875 0zm2.125 5.703125l-1.609375 -4.34375l-5.46875 0l-1.671875 4.34375l-1.625 0l5.265625 -13.75l1.640625 0l5.109375 13.75l-1.640625 0zm7.360565 0l-1.625 0l0 -12.296875l-4.21875 0l0 -1.421875l10.0625 0l0 1.421875l-4.21875 0l0 12.296875z" fill-rule="nonzero"></path><path fill="#000000" d="m499.11124 217.06747l-5.203125 3.71875l2.078125 6.015625l-5.265625 -3.71875l-5.265625 3.71875l2.078125 -6.015625l-5.203125 -3.71875l6.46875 0l1.921875 -6.078125l1.9375 6.078125l6.453125 0zm-6.90625 0.59375l-1.484375 -4.890625l-1.484375 4.890625l-4.96875 0l4.0 2.90625l-1.546875 4.515625l4.0 -2.671875l4.015625 2.75l-1.5625 -4.59375l4.078125 -2.90625l-5.046875 0z" fill-rule="nonzero"></path><path fill="#000000" d="m507.8456 225.28622l-4.203125 -9.796875l-0.359375 -0.9375l0.0625 3.359375l0 8.21875l-1.5 0l0 -13.71875l2.078125 0l4.78125 10.921875l4.7343445 -10.921875l2.015625 0l0 13.71875l-1.5625 0l0 -8.25l0.0625 -3.296875l-0.34375 0.9375l-4.2030945 9.765625l-1.5625 0zm20.770721 -12.875l0 8.90625q0 2.359375 -1.296875 3.6875q-1.28125 1.328125 -3.9375 1.328125q-2.640625 0 -3.90625 -1.328125q-1.25 -1.328125 -1.25 -3.703125l0 -8.890625l1.609375 0l0 8.90625q0 1.875 0.875 2.765625q0.890625 0.875 2.734375 0.875q1.796875 0 2.6875 -0.890625q0.890625 -0.890625 0.890625 -2.75l0 -8.90625l1.59375 0zm2.6150513 11.453125q2.140625 1.0625 4.59375 1.0625q3.015625 0 3.015625 -2.75q0 -0.890625 -0.484375 -1.4375q-0.484375 -0.5625 -1.734375 -0.875l-2.734375 -0.6875q-3.125 -0.78125 -3.125 -3.328125q0 -1.96875 1.34375 -2.90625q1.34375 -0.953125 3.71875 -0.953125q1.25 0 2.328125 0.265625q1.09375 0.265625 1.828125 0.71875l-0.46875 1.3125q-0.625 -0.34375 -1.65625 -0.609375q-1.015625 -0.28125 -2.0625 -0.28125q-3.359375 0 -3.359375 2.328125q0 0.796875 0.515625 1.28125q0.515625 0.46875 1.546875 0.71875l2.609375 0.625q1.65625 0.40625 2.515625 1.28125q0.875 0.875 0.875 2.484375q0 2.109375 -1.296875 3.171875q-1.28125 1.0625 -3.484375 1.0625q-1.65625 0 -2.9375 -0.34375q-1.28125 -0.34375 -2.03125 -0.796875l0.484375 -1.34375zm13.114868 2.265625l-1.609375 0l0 -13.71875l1.609375 0l0 13.71875zm9.262878 -12.546875q-1.546875 0 -2.671875 0.75q-1.125 0.75 -1.671875 2.03125q-0.546875 1.265625 -0.546875 2.921875q0 1.234375 0.296875 2.25q0.296875 1.015625 0.890625 1.78125q0.59375 0.765625 1.546875 1.1875q0.953125 0.421875 2.1875 0.421875q1.59375 0 3.28125 -0.828125l0.265625 1.359375q-1.375 0.875 -3.734375 0.875q-1.546875 0 -2.78125 -0.515625q-1.21875 -0.515625 -2.03125 -1.453125q-0.796875 -0.9375 -1.21875 -2.234375q-0.40625 -1.3125 -0.40625 -2.90625q0 -1.546875 0.453125 -2.84375q0.453125 -1.296875 1.28125 -2.234375q0.828125 -0.9375 2.0625 -1.453125q1.25 -0.515625 2.765625 -0.515625q2.3125 0 3.90625 1.015625l-0.640625 1.3125q-1.515625 -0.921875 -3.234375 -0.921875z" fill-rule="nonzero"></path><path fill="#000000" d="m575.61035 217.06747l-5.203125 3.71875l2.078125 6.015625l-5.265625 -3.71875l-5.265625 3.71875l2.078125 -6.015625l-5.203125 -3.71875l6.46875 0l1.921875 -6.078125l1.9375 6.078125l6.453125 0zm-6.90625 0.59375l-1.484375 -4.890625l-1.484375 4.890625l-4.96875 0l4.0 2.90625l-1.546875 4.515625l4.0 -2.671875l4.015625 2.75l-1.5625 -4.59375l4.078125 -2.90625l-5.046875 0z" fill-rule="nonzero"></path><path fill="#000000" d="m578.0791 223.86435q2.140625 1.0625 4.59375 1.0625q3.015625 0 3.015625 -2.75q0 -0.890625 -0.484375 -1.4375q-0.484375 -0.5625 -1.734375 -0.875l-2.734375 -0.6875q-3.125 -0.78125 -3.125 -3.328125q0 -1.96875 1.34375 -2.90625q1.34375 -0.953125 3.71875 -0.953125q1.25 0 2.328125 0.265625q1.09375 0.265625 1.828125 0.71875l-0.46875 1.3125q-0.625 -0.34375 -1.65625 -0.609375q-1.015625 -0.28125 -2.0625 -0.28125q-3.359375 0 -3.359375 2.328125q0 0.796875 0.515625 1.28125q0.515625 0.46875 1.546875 0.71875l2.609375 0.625q1.65625 0.40625 2.515625 1.28125q0.875 0.875 0.875 2.484375q0 2.109375 -1.296875 3.171875q-1.28125 1.0625 -3.484375 1.0625q-1.65625 0 -2.9375 -0.34375q-1.28125 -0.34375 -2.03125 -0.796875l0.484375 -1.34375zm11.427368 2.265625l0 -13.71875l7.875 0l-0.0625 1.421875l-6.203125 0l0 4.484375l5.890625 0l0 1.40625l-5.890625 0l0 4.984375l6.40625 0l-0.078125 1.421875l-7.9375 0zm20.552795 4.359375q-0.4375 -0.4375 -1.46875 -1.8125q-1.03125 -1.375 -1.546875 -2.421875q-0.5625 0.078125 -1.1875 0.078125q-2.078125 0 -3.5625 -0.875q-1.46875 -0.890625 -2.203125 -2.46875q-0.734375 -1.59375 -0.734375 -3.71875q0 -3.296875 1.703125 -5.203125q1.71875 -1.90625 4.8125 -1.90625q3.046875 0 4.765625 1.921875q1.71875 1.921875 1.71875 5.1875q0 2.390625 -0.984375 4.109375q-0.96875 1.71875 -2.78125 2.46875q0.140625 0.25 0.40625 0.671875q0.265625 0.421875 0.9375 1.375q0.6875 0.953125 1.21875 1.484375l-1.09375 1.109375zm-7.796875 -7.0625q1.21875 1.5 3.59375 1.5q2.375 0 3.578125 -1.5q1.203125 -1.5 1.203125 -4.15625q0 -2.703125 -1.21875 -4.1875q-1.203125 -1.5 -3.546875 -1.5q-2.34375 0 -3.578125 1.5q-1.234375 1.484375 -1.234375 4.1875q0 2.640625 1.203125 4.15625zm22.702637 -11.015625l0 8.90625q0 2.359375 -1.296875 3.6875q-1.28125 1.328125 -3.9375 1.328125q-2.640625 0 -3.90625 -1.328125q-1.25 -1.328125 -1.25 -3.703125l0 -8.890625l1.609375 0l0 8.90625q0 1.875 0.875 2.765625q0.890625 0.875 2.734375 0.875q1.796875 0 2.6875 -0.890625q0.890625 -0.890625 0.890625 -2.75l0 -8.90625l1.59375 0zm2.8651123 13.71875l0 -13.71875l7.875 0l-0.0625 1.421875l-6.203125 0l0 4.484375l5.890625 0l0 1.40625l-5.890625 0l0 4.984375l6.40625 0l-0.078125 1.421875l-7.9375 0zm21.25592 0l-1.828125 0l-7.125 -10.796875l-0.453125 -0.640625q0.078125 1.953125 0.078125 3.484375l0 7.953125l-1.515625 0l0 -13.71875l1.796875 0l7.140625 10.796875l0.46875 0.640625q-0.0625 -2.953125 -0.0625 -3.421875l0 -8.015625l1.5 0l0 13.71875zm8.997498 -12.546875q-1.546875 0 -2.671875 0.75q-1.125 0.75 -1.671875 2.03125q-0.546875 1.265625 -0.546875 2.921875q0 1.234375 0.296875 2.25q0.296875 1.015625 0.890625 1.78125q0.59375 0.765625 1.546875 1.1875q0.953125 0.421875 2.1875 0.421875q1.59375 0 3.28125 -0.828125l0.265625 1.359375q-1.375 0.875 -3.734375 0.875q-1.546875 0 -2.78125 -0.515625q-1.21875 -0.515625 -2.03125 -1.453125q-0.796875 -0.9375 -1.21875 -2.234375q-0.40625 -1.3125 -0.40625 -2.90625q0 -1.546875 0.453125 -2.84375q0.453125 -1.296875 1.28125 -2.234375q0.828125 -0.9375 2.0625 -1.453125q1.25 -0.515625 2.765625 -0.515625q2.3125 0 3.90625 1.015625l-0.640625 1.3125q-1.515625 -0.921875 -3.234375 -0.921875zm5.7199707 12.546875l0 -13.71875l7.875 0l-0.0625 1.421875l-6.203125 0l0 4.484375l5.890625 0l0 1.40625l-5.890625 0l0 4.984375l6.40625 0l-0.078125 1.421875l-7.9375 0z" fill-rule="nonzero"></path><path fill="#000000" fill-opacity="0.0" d="m-23.013123 490.6404l998.4882 0" fill-rule="nonzero"></path><path stroke="#000000" stroke-width="2.0" stroke-linejoin="round" stroke-linecap="butt" d="m-23.013123 490.6404l998.4882 0" fill-rule="nonzero"></path><path fill="#000000" fill-opacity="0.0" d="m268.73227 315.90552l422.51968 0l0 92.787384l-422.51968 0z" fill-rule="nonzero"></path><path fill="#000000" d="m365.49463 362.20425q1.671875 1.4375 3.703125 2.359375q2.046875 0.90625 4.015625 0.90625q2.203125 0 3.28125 -0.8125q1.09375 -0.828125 1.09375 -2.21875q0 -0.71875 -0.3125 -1.234375q-0.3125 -0.53125 -0.921875 -0.9375q-0.59375 -0.421875 -1.4375 -0.78125q-0.84375 -0.359375 -1.84375 -0.78125l-4.078125 -1.734375q-1.203125 -0.484375 -2.328125 -1.25q-1.125 -0.765625 -2.015625 -1.796875q-0.890625 -1.03125 -1.421875 -2.390625q-0.53125 -1.375 -0.53125 -3.109375q0 -1.921875 0.8125 -3.625q0.828125 -1.703125 2.3125 -2.96875q1.484375 -1.28125 3.515625 -2.0q2.046875 -0.71875 4.5 -0.71875q2.734375 0 5.390625 1.0625q2.671875 1.046875 4.6875 3.0625l-3.59375 4.46875q-1.53125 -1.203125 -3.078125 -1.84375q-1.53125 -0.65625 -3.40625 -0.65625q-1.828125 0 -2.90625 0.75q-1.078125 0.75 -1.078125 2.09375q0 0.71875 0.359375 1.21875q0.359375 0.5 1.0 0.90625q0.65625 0.40625 1.515625 0.765625q0.875 0.359375 1.875 0.796875l4.03125 1.640625q2.890625 1.140625 4.546875 3.15625q1.65625 2.015625 1.65625 5.328125q0 1.96875 -0.796875 3.734375q-0.796875 1.75 -2.3125 3.0625q-1.5 1.3125 -3.71875 2.109375q-2.203125 0.796875 -4.984375 0.796875q-3.078125 0 -6.125 -1.125q-3.046875 -1.140625 -5.4375 -3.390625l4.03125 -4.84375zm25.047424 -9.5l-3.265625 0l0 -5.234375l3.65625 -0.296875l0.8125 -6.328125l5.859375 0l0 6.328125l5.703125 0l0 5.53125l-5.703125 0l0 9.546875q0 2.015625 0.828125 2.90625q0.84375 0.890625 2.234375 0.890625q0.578125 0 1.171875 -0.140625q0.609375 -0.15625 1.09375 -0.34375l1.09375 5.140625q-0.953125 0.28125 -2.25 0.5625q-1.296875 0.296875 -3.03125 0.296875q-2.203125 0 -3.765625 -0.671875q-1.5625 -0.671875 -2.546875 -1.875q-0.984375 -1.203125 -1.4375 -2.90625q-0.453125 -1.703125 -0.453125 -3.765625l0 -9.640625zm16.555908 11.65625q0 -3.75 3.171875 -5.859375q3.171875 -2.109375 10.21875 -2.828125q-0.09375 -1.578125 -0.953125 -2.515625q-0.859375 -0.9375 -2.78125 -0.9375q-1.53125 0 -3.078125 0.578125q-1.53125 0.578125 -3.265625 1.578125l-2.484375 -4.65625q2.296875 -1.390625 4.8125 -2.25q2.53125 -0.875 5.359375 -0.875q4.609375 0 7.03125 2.625q2.421875 2.609375 2.421875 8.140625l0 13.625l-5.765625 0l-0.515625 -2.453125l-0.15625 0q-1.53125 1.34375 -3.234375 2.1875q-1.703125 0.84375 -3.71875 0.84375q-1.625 0 -2.921875 -0.5625q-1.296875 -0.546875 -2.21875 -1.53125q-0.90625 -0.984375 -1.421875 -2.28125q-0.5 -1.296875 -0.5 -2.828125zm6.71875 -0.53125q0 1.15625 0.75 1.71875q0.75 0.546875 2.0 0.546875q1.234375 0 2.09375 -0.53125q0.875 -0.53125 1.828125 -1.484375l0 -4.1875q-3.78125 0.53125 -5.234375 1.546875q-1.4375 1.0 -1.4375 2.390625zm19.7883 -16.65625l5.75 0l0.484375 4.1875l0.1875 0q1.296875 -2.453125 3.125 -3.609375q1.828125 -1.15625 3.640625 -1.15625q1.015625 0 1.65625 0.125q0.65625 0.125 1.1875 0.359375l-1.15625 6.09375q-0.671875 -0.1875 -1.25 -0.28125q-0.578125 -0.09375 -1.34375 -0.09375q-1.34375 0 -2.8125 0.96875q-1.453125 0.953125 -2.421875 3.390625l0 13.828125l-7.046875 0l0 -23.8125zm20.05716 5.53125l-3.265625 0l0 -5.234375l3.65625 -0.296875l0.8125 -6.328125l5.859375 0l0 6.328125l5.703125 0l0 5.53125l-5.703125 0l0 9.546875q0 2.015625 0.828125 2.90625q0.84375 0.890625 2.234375 0.890625q0.578125 0 1.171875 -0.140625q0.609375 -0.15625 1.09375 -0.34375l1.09375 5.140625q-0.953125 0.28125 -2.25 0.5625q-1.296875 0.296875 -3.03125 0.296875q-2.203125 0 -3.765625 -0.671875q-1.5625 -0.671875 -2.546875 -1.875q-0.984375 -1.203125 -1.4375 -2.90625q-0.453125 -1.703125 -0.453125 -3.765625l0 -9.640625zm26.493073 2.828125q0 -3.890625 1.21875 -6.9375q1.234375 -3.046875 3.3125 -5.15625q2.09375 -2.109375 4.90625 -3.21875q2.8125 -1.109375 5.96875 -1.109375q3.3125 0 5.734375 1.25q2.4375 1.25 3.96875 2.828125l-3.890625 4.375q-1.15625 -1.109375 -2.421875 -1.734375q-1.265625 -0.625 -3.28125 -0.625q-1.828125 0 -3.34375 0.703125q-1.515625 0.6875 -2.625 1.984375q-1.09375 1.296875 -1.703125 3.171875q-0.59375 1.875 -0.59375 4.21875q0 4.859375 2.1875 7.53125q2.1875 2.65625 6.59375 2.65625q0.96875 0 1.875 -0.234375q0.921875 -0.25 1.484375 -0.734375l0 -5.375l-5.171875 0l0 -5.75l11.421875 0l0 14.390625q-1.6875 1.59375 -4.421875 2.703125q-2.734375 1.09375 -6.046875 1.09375q-3.171875 0 -5.9375 -1.03125q-2.75 -1.03125 -4.8125 -3.046875q-2.0625 -2.015625 -3.25 -5.015625q-1.171875 -3.0 -1.171875 -6.9375zm30.670929 8.828125q0 -3.75 3.171875 -5.859375q3.171875 -2.109375 10.21875 -2.828125q-0.09375 -1.578125 -0.953125 -2.515625q-0.859375 -0.9375 -2.78125 -0.9375q-1.53125 0 -3.078125 0.578125q-1.53125 0.578125 -3.265625 1.578125l-2.484375 -4.65625q2.296875 -1.390625 4.8125 -2.25q2.53125 -0.875 5.359375 -0.875q4.609375 0 7.03125 2.625q2.421875 2.609375 2.421875 8.140625l0 13.625l-5.765625 0l-0.515625 -2.453125l-0.15625 0q-1.53125 1.34375 -3.234375 2.1875q-1.703125 0.84375 -3.71875 0.84375q-1.625 0 -2.921875 -0.5625q-1.296875 -0.546875 -2.21875 -1.53125q-0.90625 -0.984375 -1.421875 -2.28125q-0.5 -1.296875 -0.5 -2.828125zm6.71875 -0.53125q0 1.15625 0.75 1.71875q0.75 0.546875 2.0 0.546875q1.234375 0 2.09375 -0.53125q0.875 -0.53125 1.828125 -1.484375l0 -4.1875q-3.78125 0.53125 -5.234375 1.546875q-1.4375 1.0 -1.4375 2.390625zm19.78833 -16.65625l5.75 0l0.484375 3.078125l0.1875 0q1.5 -1.484375 3.171875 -2.5625q1.6875 -1.09375 4.03125 -1.09375q2.546875 0 4.109375 1.046875q1.5625 1.03125 2.46875 2.9375q1.578125 -1.625 3.328125 -2.796875q1.765625 -1.1875 4.15625 -1.1875q3.84375 0 5.640625 2.578125q1.796875 2.5625 1.796875 7.03125l0 14.78125l-7.046875 0l0 -13.875q0 -2.59375 -0.703125 -3.546875q-0.6875 -0.96875 -2.234375 -0.96875q-1.765625 0 -4.078125 2.3125l0 16.078125l-7.046875 0l0 -13.875q0 -2.59375 -0.703125 -3.546875q-0.6875 -0.96875 -2.234375 -0.96875q-1.8125 0 -4.03125 2.3125l0 16.078125l-7.046875 0l0 -23.8125zm39.745422 11.90625q0 -2.875 0.953125 -5.203125q0.953125 -2.328125 2.515625 -3.9375q1.5625 -1.609375 3.578125 -2.46875q2.015625 -0.875 4.171875 -0.875q2.546875 0 4.4375 0.875q1.90625 0.859375 3.171875 2.40625q1.28125 1.53125 1.90625 3.625q0.625 2.078125 0.625 4.53125q0 0.953125 -0.109375 1.75q-0.09375 0.78125 -0.1875 1.21875l-14.25 0q0.484375 2.734375 2.140625 3.96875q1.65625 1.21875 4.046875 1.21875q2.546875 0 5.140625 -1.59375l2.34375 4.28125q-1.8125 1.25 -4.046875 1.96875q-2.234375 0.71875 -4.390625 0.71875q-2.546875 0 -4.765625 -0.84375q-2.203125 -0.84375 -3.84375 -2.4375q-1.625 -1.609375 -2.53125 -3.90625q-0.90625 -2.3125 -0.90625 -5.296875zm15.359375 -2.453125q0 -2.0625 -0.921875 -3.359375q-0.90625 -1.296875 -3.0625 -1.296875q-1.6875 0 -2.96875 1.140625q-1.265625 1.125 -1.640625 3.515625l8.59375 0z" fill-rule="nonzero"></path><path fill="#000000" fill-opacity="0.0" d="m6.9107614 492.5118l270.4882 0l0 39.496063l-270.4882 0z" fill-rule="nonzero"></path><path fill="#000000" d="m22.926386 514.3537l-0.59375 -1.890625q-0.34375 -1.046875 -0.65625 -2.078125q-0.296875 -1.046875 -0.59375 -2.125l-0.078125 0q-0.28125 1.078125 -0.59375 2.125q-0.296875 1.03125 -0.640625 2.078125l-0.59375 1.890625l3.75 0zm0.390625 1.28125l-4.53125 0l-1.203125 3.796875l-1.609375 0l4.21875 -12.46875l1.78125 0l4.21875 12.46875l-1.6875 0l-1.1875 -3.796875zm4.305252 -9.734375l1.546875 0l0 3.6875l-0.03125 1.671875q0.625 -0.546875 1.359375 -0.921875q0.75 -0.375 1.5312519 -0.375q0.890625 0 1.578125 0.34375q0.6875 0.328125 1.140625 0.953125q0.46875 0.609375 0.703125 1.484375q0.25 0.859375 0.25 1.921875q0 1.171875 -0.328125 2.109375q-0.328125 0.921875 -0.875 1.578125q-0.546875 0.640625 -1.28125 0.984375q-0.71875 0.328125 -1.5156269 0.328125q-0.640625 0 -1.34375 -0.296875q-0.6875 -0.296875 -1.296875 -0.84375l-0.0625 0l-0.125 0.90625l-1.25 0l0 -13.53125zm1.546875 11.484375q0.609375 0.53125 1.203125 0.75q0.609375 0.21875 1.0625 0.21875q0.5781269 0 1.0625019 -0.25q0.484375 -0.265625 0.828125 -0.734375q0.359375 -0.46875 0.546875 -1.140625q0.203125 -0.6875 0.203125 -1.546875q0 -0.765625 -0.140625 -1.390625q-0.125 -0.625 -0.421875 -1.0625q-0.296875 -0.453125 -0.765625 -0.703125q-0.453125 -0.25 -1.0937519 -0.25q-1.125 0 -2.484375 1.265625l0 4.84375zm8.119844 -2.546875q0 -1.15625 0.34375 -2.0625q0.359375 -0.90625 0.9375 -1.53125q0.59375 -0.625 1.359375 -0.953125q0.78125 -0.328125 1.640625 -0.328125q0.84375 0 1.609375 0.328125q0.78125 0.328125 1.359375 0.953125q0.59375 0.625 0.9375 1.53125q0.359375 0.90625 0.359375 2.0625q0 1.140625 -0.359375 2.046875q-0.34375 0.890625 -0.9375 1.515625q-0.578125 0.609375 -1.359375 0.9375q-0.765625 0.328125 -1.609375 0.328125q-0.859375 0 -1.640625 -0.328125q-0.765625 -0.328125 -1.359375 -0.9375q-0.578125 -0.625 -0.9375 -1.515625q-0.34375 -0.90625 -0.34375 -2.046875zm1.609375 0q0 0.796875 0.1875 1.4375q0.203125 0.640625 0.546875 1.109375q0.359375 0.46875 0.84375 0.734375q0.5 0.25 1.09375 0.25q0.578125 0 1.0625 -0.25q0.5 -0.265625 0.84375 -0.734375q0.359375 -0.46875 0.546875 -1.109375q0.203125 -0.640625 0.203125 -1.4375q0 -0.796875 -0.203125 -1.453125q-0.1875 -0.65625 -0.546875 -1.125q-0.34375 -0.484375 -0.84375 -0.734375q-0.484375 -0.265625 -1.0625 -0.265625q-0.59375 0 -1.09375 0.265625q-0.484375 0.25 -0.84375 0.734375q-0.34375 0.46875 -0.546875 1.125q-0.1875 0.65625 -0.1875 1.453125zm9.049194 -4.640625l1.578125 0l0 5.640625q0 1.3125 0.40625 1.890625q0.40625 0.578125 1.328125 0.578125q0.71875 0 1.265625 -0.359375q0.5625 -0.375 1.21875 -1.1875l0 -6.5625l1.5625 0l0 9.234375l-1.296875 0l-0.125 -1.4375l-0.0625 0q-0.640625 0.75 -1.359375 1.21875q-0.71875 0.453125 -1.6875 0.453125q-1.46875 0 -2.15625 -0.90625q-0.671875 -0.921875 -0.671875 -2.703125l0 -5.859375zm10.555252 1.265625l-1.375 0l0 -1.171875l1.453125 -0.09375l0.1875 -2.578125l1.3125 0l0 2.578125l2.484375 0l0 1.265625l-2.484375 0l0 5.140625q0 0.859375 0.3125 1.328125q0.3125 0.453125 1.109375 0.453125q0.25 0 0.53125 -0.078125q0.28125 -0.078125 0.515625 -0.171875l0.296875 1.1875q-0.375 0.125 -0.828125 0.234375q-0.4375 0.109375 -0.875 0.109375q-0.75 0 -1.25 -0.234375q-0.5 -0.234375 -0.8125 -0.625q-0.3125 -0.40625 -0.453125 -0.96875q-0.125 -0.578125 -0.125 -1.25l0 -5.125z" fill-rule="nonzero"></path><path fill="#000000" fill-opacity="0.0" d="m576.5276 492.5118l372.88184 0l0 39.496063l-372.88184 0z" fill-rule="nonzero"></path><path fill="#000000" d="m764.51385 513.19745q0 -1.5 0.421875 -2.6875q0.4375 -1.203125 1.203125 -2.03125q0.765625 -0.84375 1.8125 -1.28125q1.046875 -0.453125 2.296875 -0.453125q1.296875 0 2.15625 0.484375q0.875 0.484375 1.421875 1.046875l-0.890625 1.015625q-0.46875 -0.5 -1.09375 -0.828125q-0.625 -0.34375 -1.5625 -0.34375q-0.953125 0 -1.71875 0.359375q-0.75 0.34375 -1.28125 1.0q-0.53125 0.65625 -0.828125 1.59375q-0.296875 0.9375 -0.296875 2.09375q0 1.171875 0.265625 2.109375q0.28125 0.9375 0.796875 1.609375q0.53125 0.671875 1.296875 1.03125q0.765625 0.359375 1.78125 0.359375q0.65625 0 1.25 -0.203125q0.609375 -0.203125 0.984375 -0.546875l0 -3.25l-2.640625 0l0 -1.296875l4.09375 0l0 5.234375q-0.609375 0.625 -1.609375 1.046875q-1.0 0.40625 -2.25 0.40625q-1.234375 0 -2.265625 -0.4375q-1.015625 -0.4375 -1.765625 -1.265625q-0.734375 -0.828125 -1.15625 -2.03125q-0.421875 -1.21875 -0.421875 -2.734375zm12.885925 -4.90625q-0.453125 0 -0.78125 -0.28125q-0.3125 -0.28125 -0.3125 -0.71875q0 -0.453125 0.3125 -0.71875q0.328125 -0.28125 0.78125 -0.28125q0.453125 0 0.765625 0.28125q0.3125 0.265625 0.3125 0.71875q0 0.4375 -0.3125 0.71875q-0.3125 0.28125 -0.765625 0.28125zm-0.796875 1.90625l1.546875 0l0 9.234375l-1.546875 0l0 -9.234375zm4.8550415 1.265625l-1.375 0l0 -1.171875l1.453125 -0.09375l0.1875 -2.578125l1.3125 0l0 2.578125l2.484375 0l0 1.265625l-2.484375 0l0 5.140625q0 0.859375 0.3125 1.328125q0.3125 0.453125 1.109375 0.453125q0.25 0 0.53125 -0.078125q0.28125 -0.078125 0.515625 -0.171875l0.296875 1.1875q-0.375 0.125 -0.828125 0.234375q-0.4375 0.109375 -0.875 0.109375q-0.75 0 -1.25 -0.234375q-0.5 -0.234375 -0.8125 -0.625q-0.3125 -0.40625 -0.453125 -0.96875q-0.125 -0.578125 -0.125 -1.25l0 -5.125zm6.180786 -4.5l1.578125 0l0 5.234375l5.796875 0l0 -5.234375l1.59375 0l0 12.46875l-1.59375 0l0 -5.875l-5.796875 0l0 5.875l-1.578125 0l0 -12.46875zm11.882629 3.234375l1.578125 0l0 5.640625q0 1.3125 0.40625 1.890625q0.40625 0.578125 1.328125 0.578125q0.71875 0 1.265625 -0.359375q0.5625 -0.375 1.21875 -1.1875l0 -6.5625l1.5625 0l0 9.234375l-1.296875 0l-0.125 -1.4375l-0.0625 0q-0.640625 0.75 -1.359375 1.21875q-0.71875 0.453125 -1.6875 0.453125q-1.46875 0 -2.15625 -0.90625q-0.671875 -0.921875 -0.671875 -2.703125l0 -5.859375zm10.289673 -4.296875l1.546875 0l0 3.6875l-0.03125 1.671875q0.625 -0.546875 1.359375 -0.921875q0.75 -0.375 1.53125 -0.375q0.890625 0 1.578125 0.34375q0.6875 0.328125 1.140625 0.953125q0.46875 0.609375 0.703125 1.484375q0.25 0.859375 0.25 1.921875q0 1.171875 -0.328125 2.109375q-0.328125 0.921875 -0.875 1.578125q-0.546875 0.640625 -1.28125 0.984375q-0.71875 0.328125 -1.515625 0.328125q-0.640625 0 -1.34375 -0.296875q-0.6875 -0.296875 -1.296875 -0.84375l-0.0625 0l-0.125 0.90625l-1.25 0l0 -13.53125zm1.546875 11.484375q0.609375 0.53125 1.203125 0.75q0.609375 0.21875 1.0625 0.21875q0.578125 0 1.0625 -0.25q0.484375 -0.265625 0.828125 -0.734375q0.359375 -0.46875 0.546875 -1.140625q0.203125 -0.6875 0.203125 -1.546875q0 -0.765625 -0.140625 -1.390625q-0.125 -0.625 -0.421875 -1.0625q-0.296875 -0.453125 -0.765625 -0.703125q-0.453125 -0.25 -1.09375 -0.25q-1.125 0 -2.484375 1.265625l0 4.84375zm38.377747 -4.1875q0 -1.5 0.421875 -2.6875q0.421875 -1.203125 1.15625 -2.03125q0.75 -0.84375 1.765625 -1.28125q1.015625 -0.453125 2.203125 -0.453125q1.140625 0 2.0 0.46875q0.859375 0.453125 1.40625 1.0625l-0.890625 1.015625q-0.5 -0.53125 -1.09375 -0.84375q-0.59375 -0.328125 -1.390625 -0.328125q-0.90625 0 -1.625 0.359375q-0.71875 0.34375 -1.234375 1.0q-0.515625 0.65625 -0.796875 1.59375q-0.28125 0.9375 -0.28125 2.09375q0 1.171875 0.265625 2.109375q0.28125 0.9375 0.765625 1.609375q0.5 0.671875 1.21875 1.03125q0.71875 0.359375 1.609375 0.359375q0.90625 0 1.578125 -0.359375q0.671875 -0.359375 1.28125 -1.03125l0.890625 0.96875q-0.734375 0.859375 -1.671875 1.34375q-0.921875 0.46875 -2.125 0.46875q-1.171875 0 -2.171875 -0.4375q-1.0 -0.4375 -1.734375 -1.265625q-0.71875 -0.828125 -1.140625 -2.03125q-0.40625 -1.21875 -0.40625 -2.734375zm10.543396 1.640625q0 -1.15625 0.34375 -2.0625q0.359375 -0.90625 0.9375 -1.53125q0.59375 -0.625 1.359375 -0.953125q0.78125 -0.328125 1.640625 -0.328125q0.84375 0 1.609375 0.328125q0.78125 0.328125 1.359375 0.953125q0.59375 0.625 0.9375 1.53125q0.359375 0.90625 0.359375 2.0625q0 1.140625 -0.359375 2.046875q-0.34375 0.890625 -0.9375 1.515625q-0.578125 0.609375 -1.359375 0.9375q-0.765625 0.328125 -1.609375 0.328125q-0.859375 0 -1.640625 -0.328125q-0.765625 -0.328125 -1.359375 -0.9375q-0.578125 -0.625 -0.9375 -1.515625q-0.34375 -0.90625 -0.34375 -2.046875zm1.609375 0q0 0.796875 0.1875 1.4375q0.203125 0.640625 0.546875 1.109375q0.359375 0.46875 0.84375 0.734375q0.5 0.25 1.09375 0.25q0.578125 0 1.0625 -0.25q0.5 -0.265625 0.84375 -0.734375q0.359375 -0.46875 0.546875 -1.109375q0.203125 -0.640625 0.203125 -1.4375q0 -0.796875 -0.203125 -1.453125q-0.1875 -0.65625 -0.546875 -1.125q-0.34375 -0.484375 -0.84375 -0.734375q-0.484375 -0.265625 -1.0625 -0.265625q-0.59375 0 -1.09375 0.265625q-0.484375 0.25 -0.84375 0.734375q-0.34375 0.46875 -0.546875 1.125q-0.1875 0.65625 -0.1875 1.453125zm9.189819 -4.640625l1.28125 0l0.140625 1.328125l0.0625 0q0.59375 -0.65625 1.3125 -1.109375q0.71875 -0.453125 1.546875 -0.453125q1.0625 0 1.65625 0.46875q0.609375 0.46875 0.890625 1.3125q0.71875 -0.8125 1.453125 -1.296875q0.734375 -0.484375 1.59375 -0.484375q1.421875 0 2.109375 0.921875q0.703125 0.90625 0.703125 2.6875l0 5.859375l-1.5625 0l0 -5.640625q0 -1.3125 -0.421875 -1.890625q-0.421875 -0.578125 -1.296875 -0.578125q-1.03125 0 -2.3125 1.421875l0 6.6875l-1.5625 0l0 -5.640625q0 -1.3125 -0.421875 -1.890625q-0.40625 -0.578125 -1.296875 -0.578125q-1.046875 0 -2.328125 1.421875l0 6.6875l-1.546875 0l0 -9.234375zm15.466003 0l1.28125 0l0.140625 1.328125l0.0625 0q0.59375 -0.65625 1.3125 -1.109375q0.71875 -0.453125 1.546875 -0.453125q1.0625 0 1.65625 0.46875q0.609375 0.46875 0.890625 1.3125q0.71875 -0.8125 1.453125 -1.296875q0.734375 -0.484375 1.59375 -0.484375q1.421875 0 2.109375 0.921875q0.703125 0.90625 0.703125 2.6875l0 5.859375l-1.5625 0l0 -5.640625q0 -1.3125 -0.421875 -1.890625q-0.421875 -0.578125 -1.296875 -0.578125q-1.03125 0 -2.3125 1.421875l0 6.6875l-1.5625 0l0 -5.640625q0 -1.3125 -0.421875 -1.890625q-0.40625 -0.578125 -1.296875 -0.578125q-1.046875 0 -2.328125 1.421875l0 6.6875l-1.546875 0l0 -9.234375zm15.325439 0l1.578125 0l0 5.640625q0 1.3125 0.40625 1.890625q0.40625 0.578125 1.328125 0.578125q0.71875 0 1.265625 -0.359375q0.5625 -0.375 1.21875 -1.1875l0 -6.5625l1.5625 0l0 9.234375l-1.296875 0l-0.125 -1.4375l-0.0625 0q-0.640625 0.75 -1.359375 1.21875q-0.71875 0.453125 -1.6875 0.453125q-1.46875 0 -2.15625 -0.90625q-0.671875 -0.921875 -0.671875 -2.703125l0 -5.859375zm10.289612 0l1.28125 0l0.140625 1.328125l0.0625 0q0.65625 -0.65625 1.390625 -1.109375q0.734375 -0.453125 1.703125 -0.453125q1.453125 0 2.125 0.921875q0.6875 0.90625 0.6875 2.6875l0 5.859375l-1.5625 0l0 -5.640625q0 -1.3125 -0.421875 -1.890625q-0.40625 -0.578125 -1.328125 -0.578125q-0.71875 0 -1.28125 0.359375q-0.546875 0.359375 -1.25 1.0625l0 6.6875l-1.546875 0l0 -9.234375zm11.001831 -1.90625q-0.453125 0 -0.78125 -0.28125q-0.3125 -0.28125 -0.3125 -0.71875q0 -0.453125 0.3125 -0.71875q0.328125 -0.28125 0.78125 -0.28125q0.453125 0 0.765625 0.28125q0.3125 0.265625 0.3125 0.71875q0 0.4375 -0.3125 0.71875q-0.3125 0.28125 -0.765625 0.28125zm-0.796875 1.90625l1.546875 0l0 9.234375l-1.546875 0l0 -9.234375zm4.8550415 1.265625l-1.375 0l0 -1.171875l1.453125 -0.09375l0.1875 -2.578125l1.3125 0l0 2.578125l2.484375 0l0 1.265625l-2.484375 0l0 5.140625q0 0.859375 0.3125 1.328125q0.3125 0.453125 1.109375 0.453125q0.25 0 0.53125 -0.078125q0.28125 -0.078125 0.515625 -0.171875l0.296875 1.1875q-0.375 0.125 -0.828125 0.234375q-0.4375 0.109375 -0.875 0.109375q-0.75 0 -1.25 -0.234375q-0.5 -0.234375 -0.8125 -0.625q-0.3125 -0.40625 -0.453125 -0.96875q-0.125 -0.578125 -0.125 -1.25l0 -5.125zm5.415222 10.515625q0.140625 0.03125 0.328125 0.078125q0.203125 0.046875 0.375 0.046875q0.796875 0 1.296875 -0.5625q0.5 -0.546875 0.78125 -1.40625l0.21875 -0.6875l-3.703125 -9.25l1.609375 0l1.875 5.109375q0.21875 0.609375 0.453125 1.28125q0.234375 0.671875 0.4375 1.328125l0.078125 0q0.21875 -0.625 0.40625 -1.3125q0.1875 -0.6875 0.375 -1.296875l1.65625 -5.109375l1.515625 0l-3.46875 10.0q-0.25 0.671875 -0.5625 1.265625q-0.296875 0.59375 -0.71875 1.015625q-0.40625 0.4375 -0.953125 0.671875q-0.53125 0.25 -1.234375 0.25q-0.3125 0 -0.578125 -0.046875q-0.265625 -0.046875 -0.5 -0.140625l0.3125 -1.234375l0 0z" fill-rule="nonzero"></path></g></svg>

